<svg id="Layer_1" data-name="Layer 1" xmlns="http://www.w3.org/2000/svg" viewBox="0 0 38.62 38.62"><defs><style>.cls-1{fill:#45a063;}.cls-2{fill:none;stroke:#45a063;}.cls-2,.cls-3{stroke-miterlimit:10;}.cls-3{fill:#fff;stroke:#fff;stroke-width:0.5px;}</style></defs><title>tumblr</title><circle class="cls-1" cx="19.31" cy="19.31" r="18.81"/><circle class="cls-2" cx="19.31" cy="19.31" r="18.81"/><path class="cls-3" d="M20.49,11.23v3.41h3.4V18h-3.4v4.81s0,1,.79.95h2.61v3.41a6.12,6.12,0,0,1-2.09.14s-3.44.32-4.44-2.59a9.88,9.88,0,0,1-.22-1.23V18H14.73V14.87l.6-.08a3.62,3.62,0,0,0,1.22-.5,3.32,3.32,0,0,0,1.26-2c.07-.33.12-.66.16-1Z"/></svg>