<svg id="Layer_1" data-name="Layer 1" xmlns="http://www.w3.org/2000/svg" viewBox="0 0 38.3 38.2"><defs><style>.cls-1{fill:#45a063;}.cls-2{fill:#fff;}</style></defs><circle class="cls-1" cx="19.27" cy="19.1" r="19.03"/><circle class="cls-1" cx="19.1" cy="19.1" r="19.1"/><path class="cls-2" d="M21.48,14.81a4.23,4.23,0,0,1,4.73.67c1.57,1.47,1.33,3.8,1.33,5.74v4.32H23.87V20.08a4.12,4.12,0,0,0-.28-2.15,1.75,1.75,0,0,0-2.22-.65,2.29,2.29,0,0,0-1.24,1.15A4.07,4.07,0,0,0,20,20.3v5.24H16.38V14.62H20v1.46c.32-.33.66-.65,1-.95A2.76,2.76,0,0,1,21.48,14.81Z"/><rect class="cls-2" x="10.7" y="14.62" width="3.61" height="10.92"/><circle class="cls-2" cx="12.51" cy="11.13" r="1.86"/></svg>