<svg id="Layer_4" data-name="Layer 4" xmlns="http://www.w3.org/2000/svg" viewBox="0 0 996 442"><defs><style>.cls-1,.cls-5{fill:#45a063;}.cls-2{font-size:60px;font-family:Poppins-SemiBold, Poppins;font-weight:600;}.cls-16,.cls-18,.cls-2,.cls-3,.cls-4{fill:#fff;}.cls-3{font-size:24px;font-family:Poppins-Regular, Poppins;}.cls-5{font-size:25px;font-family:Poppins-Medium, Poppins;font-weight:500;}.cls-6{fill:#f1c38c;}.cls-7{fill:#a87d4f;opacity:0.4;}.cls-8{fill:#f0d0a7;}.cls-14,.cls-9{fill:#3b2315;}.cls-10,.cls-11,.cls-12,.cls-15,.cls-19{fill:none;}.cls-10{stroke:#f0d0a7;}.cls-10,.cls-11,.cls-12,.cls-14,.cls-15,.cls-16,.cls-17,.cls-18,.cls-19,.cls-20{stroke-miterlimit:10;}.cls-11,.cls-14{stroke:#3b2315;}.cls-12{stroke:#231f20;}.cls-13{fill:#c3996b;}.cls-15,.cls-16,.cls-19{stroke:#45a063;}.cls-15{stroke-width:2px;}.cls-17{fill:#2aa9e0;opacity:0.5;}.cls-17,.cls-18{stroke:#e84138;}.cls-20{fill:#603914;stroke:#603914;}</style></defs><g id="Rectangle_1" data-name="Rectangle 1"><rect class="cls-1" width="996" height="442" rx="39"/><rect class="cls-1" x="2.5" y="2.5" width="991" height="437" rx="36.5"/></g><text class="cls-2" transform="translate(49.48 94.55)">Branding</text><text class="cls-3" transform="translate(49.48 153.4)">In first year I developed my own brand <tspan x="0" y="28.8">and designed a monogram, word mark </tspan><tspan x="0" y="57.6">and a visualmarque to represent me.</tspan></text><rect class="cls-4" x="49.48" y="243.38" width="191.19" height="43.15" rx="7.51"/><text class="cls-5" transform="translate(75.62 273.35)">Case study</text><polygon class="cls-1" points="667.78 250.18 732.81 188.44 743 198.12 667.78 269.54 709.53 269.54 796.21 187.23 796.21 147.79 765.83 176.65 755.5 166.81 796.21 128.25 796.21 87.1 753.75 127.56 700.78 177.71 700.77 158.25 796.21 67.02 753.62 67.02 667.78 148.52 667.78 250.18"/><path class="cls-6" d="M4049.34,379.32l-2.08,34.32s59.66,47.55,63.16,52c0,0,52.35-37.3,61.22-41.26l1.71-45Z" transform="translate(-3351.76 -55.98)"/><path class="cls-7" d="M4108.2,406.93c-11.72,2.25-24.06,2.39-35.11-2.45-10.46-4.58-14.53-13.84-18.71-23.19-1.11-2.5-5-.34-3.85,2.14,4.79,10.71,7.76,18.62,18.64,24.48,11.3,6.1,37.12,8.26,44.78,2.86C4116.26,409.15,4111,406.39,4108.2,406.93Z" transform="translate(-3351.76 -55.98)"/><path class="cls-7" d="M4167.64,380.51c-.43,7.31-5.3,12.38-10.64,17.17-5.92,5.3-11.73,7.19-19.76,7.19a2.12,2.12,0,1,0,0,4.24c8.59,0,14.73-1.89,21.4-7.14,7.06-5.56,12.93-12.51,13.46-21.46C4172.26,377.78,4167.8,377.79,4167.64,380.51Z" transform="translate(-3351.76 -55.98)"/><path class="cls-8" d="M4231.55,290.6a9.83,9.83,0,0,0-.1-1.34,6.43,6.43,0,0,0-.78-6.87c.66-3-2-6.09-6.14-6.09a5.06,5.06,0,0,0-5.18,3.82,13.47,13.47,0,0,0-9.36,2.58c0-3.76,0-7.46-.1-11-.38-21.48-8.21-38.5-23.68-54-3.82-3.83-8.29-7.84-13.33-10.56a34.7,34.7,0,0,0,1.57-3.44c4.67-12.15-12-17.85-20.5-11.34-10.23,7.81-20.21,15.78-31.49,22.21-12.6,7.18-27.1,10.3-41,14.29-1.5.43-3,.88-4.49,1.35,4-3.78,8-7.51,11.8-11.31,10.9-10.88-6.43-27.38-17.36-16.48-11.79,11.78-24,23-34.08,36.19a82.25,82.25,0,0,0-8.2,13.45c-.49,0-1,0-1.47-.09-10.79-1.05-15,11.82-9.55,18.86a9.19,9.19,0,0,0-1.73,4,41.25,41.25,0,0,0-.36,11.38c-.27,1.19-.57,2.36-.75,3.45a13.38,13.38,0,0,0-.18,1.52c-.44-2.43-.93-4.85-1.57-7.25-.92-3.39-2.27-4.71-5.1-3.75.15-1.38.46-2.43.52-3.84.32-8.2-15.54-8.17-15.86,0-.38,9.35-2.49,17.66,3.13,26.08,2.37,3.57,6,9.4,10.13,12.62.59,2,3.62,4.4,6.47,4.4,2.14,0,2.31-1.67,3.17-3,.31,2.61-.06,5.31.67,7.89.62,7.15.64,13.92,8.19,17.48.19.09.37.13.56.2,5.77,9.58,12.56,18.6,18.44,28.13,5,8.18,9.23,16.61,15.36,24.17,13,16,30.6,17.35,50.62,16.17,10-.6,21.15.81,31-1.46,11.09-2.58,17.74-11.93,24.15-20.36s12.29-16.79,18.45-25.29c6.41-8.86,14.05-17.19,18.77-27a42.08,42.08,0,0,0,2.22-5.35c.26,0,.06-2.37.32-2.36a3.36,3.36,0,0,0,5.49,1.33c1-1,3-1.34,3.82-2.49a7.57,7.57,0,0,0,2.39-3.13c.57,0,.63-.89,1.19-1.23a5.66,5.66,0,0,0,2.18-3.14c.08-.2,1.34.05,1.42-.15,2.09-1.71,2.59-4,4.4-6.29a16.66,16.66,0,0,0,3.78-8.06C4232.37,300.66,4231.43,296.19,4231.55,290.6Zm-213.69,9c-.2.5-.34,1-.51,1.52-.34-.81-.66-1.63-1-2.45-.11-.66-.23-1.32-.34-2A11.71,11.71,0,0,0,4017.86,299.65Z" transform="translate(-3351.76 -55.98)"/><path class="cls-9" d="M4194.14,255.94a12,12,0,0,1-1.53-.93,1.84,1.84,0,0,0-1.15-.27c-.49-.94-2.45-2.79-3.81-3a22.24,22.24,0,0,1-6.27-1.7,4.18,4.18,0,0,0-2-.47c.12-.65-2.1-1.46-3-1.35-.67.09-1.34.14-2,.19a8.84,8.84,0,0,0-2-.9c-1-.25-4.84-.86-5.71-.2-4.13,0-5.68.51-9.8.4-1.12-.1-2.24-.18-3.36-.25-4.43-.27-10.05-.47-13.69,2.32a3.86,3.86,0,0,0-2.17,1.47,2.4,2.4,0,0,0-1.91,1.54,11.56,11.56,0,0,0-.49,1.51,7.66,7.66,0,0,1-.25.77h0c0-.05,0,0,0,0h0c-1.83.95-2.65,5.24-.39,4.95a26.3,26.3,0,0,0,5.68-2.29,4.72,4.72,0,0,0,2.32.08c9.19-1.93,17.55-1.15,26.84-1.17,1.3,0,2.77.58,3.48-.09,2.89,1.58,5.77.24,9,.34,2.16.89,4.22,2,6.72,2.26a3,3,0,0,0,2-.36c.4.26.81.51,1.23.74C4196.45,262,4196.69,257.21,4194.14,255.94Z" transform="translate(-3351.76 -55.98)"/><path class="cls-9" d="M4035.52,251.7c-.12.09-.14.14,0,0Z" transform="translate(-3351.76 -55.98)"/><path class="cls-9" d="M4092.67,250.73c-1.31-5.67-5.86-4.83-11-5.26a1.18,1.18,0,0,0-.2-.07c-8.57-1.24-17.29-1.79-25.94-2.25-4.49-.23-10.68-1.11-15.07.71l-.13-.05a2.3,2.3,0,0,0-2.74,1.48c-.33.78-1.68,1.48-2.44,1.84a8.55,8.55,0,0,0-2.71,1.46,2.09,2.09,0,0,0,0,3,2.34,2.34,0,0,0,3.16,0l-.11.11.18-.12c.32-.16.66-.31,1-.45s.63-.33.95-.49a1.92,1.92,0,0,0,2,.43c7.25-2.31,17.18-.15,24.69.05,8.94.24,19.65,3.18,28.31,4.57C4094.36,256,4093.06,252.41,4092.67,250.73Z" transform="translate(-3351.76 -55.98)"/><path class="cls-7" d="M4174.52,217.34c-2.55-2.15-5.18-4.2-7.76-6.32a2.2,2.2,0,0,0-1-3.49c.39.13-.2-.2,0-.05a3.78,3.78,0,0,1-.41-.39,12.44,12.44,0,0,1-.72-1l0,0a2,2,0,0,0,.58-1.17,1.85,1.85,0,0,0,.42-1.82,17.21,17.21,0,0,0-.61-1.7,7.72,7.72,0,0,0,2-3.66,2.3,2.3,0,0,0-2.28-2.62,2.22,2.22,0,0,0-3.54-.63c-.2.19-.39.4-.58.61.08-.27.19-.53.27-.8.7-2.65-3.61-3.78-4.31-1.13-1.6,6.06-7.27,11.45-13.78,16.08a119.54,119.54,0,0,1-12.13,3.63,2,2,0,0,0-.86,3.52c-8.93,4.19-18.07,7.52-28.49,5.61-2.81-.51-4,3.57-1.19,4.09l.32,0a13.18,13.18,0,0,0-3.67,2.11,1.7,1.7,0,0,0-.67,1.5c-4.93.42-9.53,0-13.08-2-2.51-1.35-4.76,2.31-2.26,3.65,12.14,6.54,31.92-.45,43-5.95a110.57,110.57,0,0,0,12.31-7.36l4.42-2.18c4.87-2.39,12.58-4.25,18.09-7.68a24.63,24.63,0,0,0,2.27,3.24c2.86,3.42,7.12,6,10.54,8.88C4173.5,222.15,4176.67,219.16,4174.52,217.34Z" transform="translate(-3351.76 -55.98)"/><path class="cls-7" d="M4079.54,205.19c-1.71,2.4-4.28,4-6.56,5.88a29.59,29.59,0,0,0-4.5,4.78,1.88,1.88,0,0,0-1.29.57,4.53,4.53,0,0,1-2.78,1.17,2.09,2.09,0,0,0-1.57,2.3c-1.82.3-3.61.55-5.22.67-2.45.19-2.8,3.34-1,4.08-.86,2-3.11,3.65-4.75,5a25,25,0,0,1-6,3.85,15.38,15.38,0,0,1-3.53.82c-2.83.3-2.86,4.54,0,4.24.29,0,.56-.1.84-.14a2.19,2.19,0,0,0,1.28.07,23,23,0,0,0,5.73-2.39c8.1-4.22,14-12.31,23.84-13.9,2.07-.34,2-2.61.66-3.62a15.33,15.33,0,0,0,3-3.84,2.17,2.17,0,0,0,.11-1.68,33.48,33.48,0,0,0,5.61-5.74C4085,205.07,4081.14,203,4079.54,205.19Z" transform="translate(-3351.76 -55.98)"/><path class="cls-7" d="M4120.49,278.33a3.68,3.68,0,0,1-1.77-.2,1.12,1.12,0,0,0-.16-1.68,5.4,5.4,0,0,0-4-1.16,1.1,1.1,0,0,0-.46-.05c-4.67.5-6.13,1.83-8.31,5.83-2.75,5-5.95,9.76-8.1,15.08a.8.8,0,0,0,.15.9c-.27.32-2-.64-1.78-.33-1.07,1.33-.52,3.86-1.8,4.92-.86.47-1.73.91-2.61,1.29a.85.85,0,0,0-.56.8c-3.45,1.84-7.65,2.66-13.09,1.87-1.4-.2-2,1.84-.59,2,8,1.16,14.38-.63,19.53-5.12a26.14,26.14,0,0,0,8.14-8.11c3.65-5.74,4.07-17.27,14.6-12.57,1.11.5,2.1-.78,1.52-1.52C4122.44,280,4121.85,278.1,4120.49,278.33Z" transform="translate(-3351.76 -55.98)"/><path class="cls-7" d="M4206.9,278.71a1.19,1.19,0,0,0-1.48-.41c-1.57.72-3.89.22-4.37,1.76-2.34,3.9-1.2,12.07-2.41,15.29-.31.83-2.07,1.88-1.35,1.82-1.63,3.12-1.87,5.8-5,5.48a.89.89,0,0,0-1,.88c-6.37,3.58-12.75,3.47-19.59,4.43.36-.12,4.55.61,4.91.46,1.31-.56-3.61-1-4.91-.46-4.23,1.81-7.63-.08-12.11,0-3.56.09-9.19,1.94-12-.85-.84-.85-5.28-1.55-5-.64-6.21-1.79-10-2.85-12.49-9-.51-1.26-2.67-.71-2.15.57,4.31,10.72,14.76,13,25.75,14.37,14.09,1.72,27.26.86,39.4-6.16.12-.07,2.1-1.27,2.17-1.36a16.62,16.62,0,0,0,7.1-8.63c1.12-2.62.78-8.31,1.73-12.25.66-1.54,1.59-2.9,3-3.24A1,1,0,0,0,4206.9,278.71Z" transform="translate(-3351.76 -55.98)"/><path class="cls-7" d="M4116.75,337a5,5,0,0,0-.95.06,5.59,5.59,0,0,0-2.68-.25c-1.44.79-3.15.11-6.43.05a10.47,10.47,0,0,1-3-.93,1.1,1.1,0,0,0-1.4.3c-2.35-.73-3.9-2.18-3.35-4.69.28-1.34-1.58-2.88-1.85-1.54-1.67,8.3,4.51,9,10.43,9a22.33,22.33,0,0,0,3.16,0c2.55-.18,5.81-.46,7.81-2.05A11.39,11.39,0,0,0,4116.75,337Z" transform="translate(-3351.76 -55.98)"/><path class="cls-10" d="M4220.43,278.32s8.43-6.65,10.24,4.07c0,0,3.76,18.94-4.32,30.59,0,0-6.7,9.53-11.58,13.64,0,0-6,8.28-9.76,2" transform="translate(-3351.76 -55.98)"/><path class="cls-10" d="M4016.51,304.89s-.41,19.87,0,21.59a33.47,33.47,0,0,0,7.92,15.5c2.68,4.13,7.64,10.43,10.32,14.56,4.78,7.38,8.05,12.75,12.83,20.13a132.41,132.41,0,0,0,13.24,17.21,49.64,49.64,0,0,0,14,11.11,52.7,52.7,0,0,0,12.87,4.84c4.8,1.08,10.18.63,15.09.79,9.44.31,19.06.05,28.49-.44,4.13-.21,8.86-.67,12.74-2.09,4.44-1.62,8.52-6.12,11.75-9.29a122.9,122.9,0,0,0,10.53-12c1.85-2.36,3.63-4.76,5.38-7.18q10.11-14,20.16-28.05c1.92-2.67,3.91-5.31,6-7.89,4.45-5.6,7.94-14.15,8.1-21.21.08-3.66,2.14-13.94,1.24-17.62" transform="translate(-3351.76 -55.98)"/><path class="cls-10" d="M4005.69,270.69s-14.74-4.2-13.47,11a61.35,61.35,0,0,0,.17,8.89c.35,4,1.9,9.49,4.89,13,6.34,7.45,6.78,10.18,11.53,14.12,0,0,4.6,5.42,7.53-1.33" transform="translate(-3351.76 -55.98)"/><path class="cls-11" d="M4133.82,258.57a39.32,39.32,0,0,1,.75-4,11,11,0,0,1,3.89-4.64c6.28-4.17,16.07-2.81,23.27-2.86a70.26,70.26,0,0,1,19.45,2.26,38.89,38.89,0,0,1,9.67,4.13c3.13,1.9,4.62,5.53,6.31,8.52-3.44-2.76-9.2-3.45-13.41-4.15a127.5,127.5,0,0,0-32.13-.93,73,73,0,0,0-16.11,2.79l-1.72.69Z" transform="translate(-3351.76 -55.98)"/><path class="cls-11" d="M4030.15,252.58s32.58-6.64,62.52,3.77v-5.62c0-5.71-10.78-5.63-14.81-6.1-7.76-.9-15.61-1.47-23.42-1.67-2.24-.06-4.47-.1-6.7,0-1,0-8.3.17-9,.85Z" transform="translate(-3351.76 -55.98)"/><path class="cls-12" d="M4133.56,260.42" transform="translate(-3351.76 -55.98)"/><path class="cls-13" d="M4113.81,288a57.16,57.16,0,0,1-2.63,18.38,34.09,34.09,0,0,1-4.14,8.41c-1.8,2.57-3.8,4.92-5.48,7.48a25.75,25.75,0,0,0-2.2,4,9.44,9.44,0,0,0-.85,4.31c0,.18,0,.36,0,.54l.13.52a3.37,3.37,0,0,0,.34,1,5.09,5.09,0,0,0,1.18,1.77,7.85,7.85,0,0,0,3.95,1.8,34.18,34.18,0,0,0,4.57.45c1.55.1,3.08.18,4.63.22a55.07,55.07,0,0,0,9.25-.42,49.52,49.52,0,0,1-9.26.91c-1.55,0-3.1,0-4.65-.08a35.39,35.39,0,0,1-4.68-.32,8.32,8.32,0,0,1-4.41-1.93,6,6,0,0,1-1.39-2.05,4.33,4.33,0,0,1-.41-1.16l-.15-.6c0-.2,0-.41,0-.62a10.3,10.3,0,0,1,.86-4.73,26.83,26.83,0,0,1,2.25-4.16c1.75-2.6,3.8-5,5.58-7.44a36.39,36.39,0,0,0,4.15-8.15,49.78,49.78,0,0,0,2.32-8.92A81.09,81.09,0,0,0,4113.81,288Z" transform="translate(-3351.76 -55.98)"/><path class="cls-13" d="M4075.05,352.83a67.92,67.92,0,0,0,8.56,3.43c1.45.53,2.93.94,4.39,1.41s3,.81,4.45,1.21a105.35,105.35,0,0,0,18.14,2.93c3.06.33,6.13.3,9.19.36,1.53-.05,3.06-.15,4.6-.22.76,0,1.53-.06,2.29-.13l2.29-.26c1.52-.19,3.05-.32,4.57-.56l4.52-.88c.75-.16,1.52-.26,2.26-.45l2.23-.61,4.46-1.2a82.6,82.6,0,0,1-17.95,4.46l-2.3.33c-.77.09-1.54.11-2.31.16-1.55.09-3.09.21-4.64.27-3.1,0-6.2,0-9.28-.27a99.13,99.13,0,0,1-18.27-3.19A79.48,79.48,0,0,1,4075.05,352.83Z" transform="translate(-3351.76 -55.98)"/><path class="cls-14" d="M4122.6,121.13s23.7,4.76,24.4,22.24c0,0,10.18-20.65,32.49-15.89,0,0-19.52-10.59-25.1-6.35,0,0-13.94-13.77-26.77-11.12,0,0,13.39,3.17,16.17,10.59C4143.79,120.6,4131.52,116.89,4122.6,121.13Z" transform="translate(-3351.76 -55.98)"/><path class="cls-9" d="M4098,118.48c-2.44.21-4.87.5-7.28.89s-4.82.81-7.2,1.34a83.35,83.35,0,0,0-14,4.26,49.65,49.65,0,0,0-12.62,7.15,31.92,31.92,0,0,0-9.09,11.25,29,29,0,0,1,3.52-6.46,33.66,33.66,0,0,1,5.09-5.38,38.18,38.18,0,0,1,6.08-4.23,51.11,51.11,0,0,1,6.65-3.25,77.11,77.11,0,0,1,14.18-4.09A82.76,82.76,0,0,1,4098,118.48Z" transform="translate(-3351.76 -55.98)"/><path class="cls-9" d="M4107,130.93c-2.54,1.2-5.06,2.41-7.56,3.69s-5,2.53-7.45,3.87c-4.93,2.65-9.81,5.4-14.49,8.45a94.31,94.31,0,0,0-13.37,10,36.65,36.65,0,0,0-5.51,6.23,15.16,15.16,0,0,0-2.94,7.7,14.89,14.89,0,0,1,2.53-8,37,37,0,0,1,5.39-6.52,89,89,0,0,1,13.36-10.32c4.76-3,9.65-5.78,14.67-8.29S4101.74,133,4107,130.93Z" transform="translate(-3351.76 -55.98)"/><path class="cls-9" d="M4119.25,137c-1.55.52-3.09,1-4.62,1.6s-3.06,1.1-4.57,1.7c-3,1.19-6,2.42-8.94,3.84a57.59,57.59,0,0,0-8.4,4.81,25.43,25.43,0,0,0-3.67,3.12,13.05,13.05,0,0,0-2.71,4,12.08,12.08,0,0,1,2.34-4.31,25.09,25.09,0,0,1,3.58-3.41,44.74,44.74,0,0,1,8.43-5.1,77,77,0,0,1,9.11-3.67A81.44,81.44,0,0,1,4119.25,137Z" transform="translate(-3351.76 -55.98)"/><path class="cls-9" d="M4022.2,181c-.95,2-1.87,4-2.71,6s-1.72,4-2.5,6.08c-1.57,4.08-3,8.2-4.22,12.4a101.83,101.83,0,0,0-2.84,12.77,61.92,61.92,0,0,0-.59,6.52,57.45,57.45,0,0,0,0,6.56,51.9,51.9,0,0,1-.2-13.18,89.14,89.14,0,0,1,2.64-12.94,117.71,117.71,0,0,1,4.47-12.42A100.53,100.53,0,0,1,4022.2,181Z" transform="translate(-3351.76 -55.98)"/><path class="cls-9" d="M4133.56,150.92c-2.07,5.35-4.37,10.61-6.78,15.82s-5,10.32-7.75,15.38a163.68,163.68,0,0,1-9,14.68,74.4,74.4,0,0,1-5.37,6.76A26,26,0,0,1,4098,209a27.61,27.61,0,0,0,6.26-5.8,77.78,77.78,0,0,0,5.1-6.87c3.16-4.77,6.07-9.7,8.79-14.73s5.37-10.11,7.93-15.23q1.92-3.84,3.77-7.73C4131.12,156.11,4132.33,153.51,4133.56,150.92Z" transform="translate(-3351.76 -55.98)"/><path class="cls-9" d="M4167.78,143.37a43.79,43.79,0,0,1,6.82,7,38.22,38.22,0,0,1,5.1,8.4,25,25,0,0,1,2.2,9.59,21.26,21.26,0,0,1-.57,4.91,19.92,19.92,0,0,1-1.84,4.54,21.44,21.44,0,0,0,1.64-9.42,27.49,27.49,0,0,0-2.35-9.23,46.68,46.68,0,0,0-4.79-8.33c-.93-1.32-1.92-2.59-3-3.83S4168.91,144.54,4167.78,143.37Z" transform="translate(-3351.76 -55.98)"/><path class="cls-9" d="M4179.49,137a71.3,71.3,0,0,1,9.21,8.93,73.87,73.87,0,0,1,7.57,10.42,50.51,50.51,0,0,1,5.13,11.83,41.45,41.45,0,0,1,1.15,6.35,32,32,0,0,1-.19,6.42,36.76,36.76,0,0,0-1.7-12.56,55.16,55.16,0,0,0-2.28-5.92,56.7,56.7,0,0,0-3-5.61,81.57,81.57,0,0,0-7.29-10.43q-2-2.49-4.17-4.84T4179.49,137Z" transform="translate(-3351.76 -55.98)"/><path class="cls-9" d="M4187.86,118.48a47.3,47.3,0,0,1,8.34,5.73,41.11,41.11,0,0,1,6.95,7.42,25.28,25.28,0,0,1,4.31,9.23,20.86,20.86,0,0,1,.43,5.1,19.42,19.42,0,0,1-1.06,5,22.1,22.1,0,0,0,.57-5,20.68,20.68,0,0,0-.68-4.9,27.8,27.8,0,0,0-4.38-8.84,49.83,49.83,0,0,0-6.65-7.43c-1.22-1.15-2.49-2.23-3.8-3.28S4189.24,119.44,4187.86,118.48Z" transform="translate(-3351.76 -55.98)"/><path class="cls-13" d="M4000.59,283.47c.23,3.49.39,6.95.77,10.38a45.39,45.39,0,0,0,.84,5.09,11.34,11.34,0,0,0,2,4.68,9,9,0,0,1-2.79-4.47,26.52,26.52,0,0,1-1.08-5.18A40.1,40.1,0,0,1,4000.59,283.47Z" transform="translate(-3351.76 -55.98)"/><path class="cls-13" d="M4222.3,290.6a19.44,19.44,0,0,1,2.14,5.75,16.56,16.56,0,0,1,.14,6.2,11.65,11.65,0,0,1-2.65,5.64,12.44,12.44,0,0,1-5.07,3.46,16.28,16.28,0,0,0,4.46-3.94,12.52,12.52,0,0,0,2.28-5.34,19.43,19.43,0,0,0,.07-5.9A31.22,31.22,0,0,0,4222.3,290.6Z" transform="translate(-3351.76 -55.98)"/><path class="cls-12" d="M4050,380.2" transform="translate(-3351.76 -55.98)"/><path class="cls-1" d="M4205.09,272.06c-.14-1.28.33-2.55-.71-3.55a5.7,5.7,0,0,0-4.09-1.33c-4.05-1.71-8.86-2.18-13.1-3a62.88,62.88,0,0,0-7.5-1,65.39,65.39,0,0,1-8.75-.77,1.56,1.56,0,0,0-.78,0,1.69,1.69,0,0,0-1,.1l-.09,0c-3.46-.58-7.25-.23-10.76-.28a101.63,101.63,0,0,0-12.7.63c-4,.44-8,1-12,1.55a40.27,40.27,0,0,0-5.13.94l-1.68.27c-1.87.33-3.48,1.53-5.05,2.49a1.62,1.62,0,0,0-.39.33c-2.91-.56-6.8.26-9,.3-3.41.06-6.45-1.28-9.47-2.67a10.27,10.27,0,0,0-4.77-2l-.3-.11a72.18,72.18,0,0,0-7.46-1.59c-2.88-.61-5.71-1.39-8.61-1.93a1.45,1.45,0,0,0-1.36.42,80.92,80.92,0,0,0-8.15-1,1.36,1.36,0,0,0-.42-.09l-1.25,0a1.38,1.38,0,0,0-.89-.29c-8.37,0-17-.94-25.39.16-4.14.55-8.3,1.14-12.47,1.4a7,7,0,0,0-2.55.6,1.62,1.62,0,0,0-.53-.19,2.68,2.68,0,0,0-1.11.28,9.1,9.1,0,0,1-3.52.79,7,7,0,0,0-2.91,1,1.39,1.39,0,0,0-1.7.58c-.74,1.5-.45,3.14-.63,4.74a10.13,10.13,0,0,0-.09,1.77,1.31,1.31,0,0,0,.23,1.61,1.5,1.5,0,0,0,1.42.33l.08,0a5.07,5.07,0,0,1,.7.31,3.53,3.53,0,0,0,.83.74,3,3,0,0,1,.86,1,22.57,22.57,0,0,1,1,3.85c.74,3,.88,6.09,1.6,9.08a1.6,1.6,0,0,0,.16.42,8.92,8.92,0,0,0,.66,4c.33.95.62,1.9.93,2.85a9,9,0,0,0,1.29,2.16,1.29,1.29,0,0,0,0,.28,2.85,2.85,0,0,0,.29,1.07,1.14,1.14,0,0,0,.2.91,6.92,6.92,0,0,0,3.52,2.58,12.76,12.76,0,0,0,3.57,1.82,1.26,1.26,0,0,0,.88,0,15.62,15.62,0,0,0,2.72.75,142.36,142.36,0,0,0,16.75,2c5.9.3,11.82.54,17.72.45,4.62-.06,10.35.24,14.59-1.77a1.29,1.29,0,0,0,.57-.5,16.2,16.2,0,0,0,4.52-3.19,36.27,36.27,0,0,0,2.88-4,39.73,39.73,0,0,0,3.05-4.7,48.17,48.17,0,0,0,2.45-5.35,1.52,1.52,0,0,0,.45-.46,22.18,22.18,0,0,0,2.32-4.87c.35-.7.72-1.38,1.12-2.06.71-1.19.88-2.62,1.89-3.66s3-1.29,4.22-1.61c3.16-.81,6.35-.37,8,2.46a10,10,0,0,1,1.24,3.07,2.5,2.5,0,0,0,.89,1.5l.11.12a1.32,1.32,0,0,0,0,.56c.21,1.12.91,2.06,1.16,3.16a6.69,6.69,0,0,0,1,3,1.5,1.5,0,0,0,.41.35,30.4,30.4,0,0,0,1.61,4c1.65,3.48,3.38,6.91,6.1,9.74s5.78,3.8,9.66,4.4a130.31,130.31,0,0,0,13.37,1.57c8.65.44,17.66,1,26.28-.16,7.06-.92,12.48-4.48,14.21-11.14.07-.23.12-.46.17-.69a2.12,2.12,0,0,0,1-1.2c.49-1.75.53-3.67.88-5.46.49-2.52,1.14-5,1.66-7.52.57-2.78,1.87-3.86,4.3-5.28a1.33,1.33,0,0,0,.62-1.52A8.37,8.37,0,0,0,4205.09,272.06Zm-107.44,18.63c-1.24,2.65-3.13,4.89-4.74,7.34a12.85,12.85,0,0,1-5.16,4.32,1.59,1.59,0,0,0-.86.15c-1.61.79-3.59.52-5.3,1.05a1.43,1.43,0,0,0-.58.33c-2.29.12-4.57.26-6.86.31-5.29.12-10.58-.15-15.87-.37a86.93,86.93,0,0,1-14.68-1.44c-2.2-.47-4.42-.66-6.49-1.6l-.09,0a8.4,8.4,0,0,1-4.45-3.22c-2.14-2.78-2.5-6.41-3.45-9.66a9.6,9.6,0,0,0-.31-1.17s0,0,0-.05a11.51,11.51,0,0,0-.2-4.86,1.13,1.13,0,0,0,0-.42c0-.37-.09-.71-.15-1.05a1.25,1.25,0,0,0,.16-1c-.51-2.11,0-4.87.35-7,.08-.44.18-1.24.36-2.08a15.64,15.64,0,0,1,2.48-3.35l.19-.19a25.17,25.17,0,0,0,2.43-1.5c3.47-2,6-1.58,10-1.88,4.46-.33,8.94-.49,13.41-.64,3.56-.12,7.2-.32,10.79-.28a1.86,1.86,0,0,0,.34,0c6.29.08,12.42,1.55,18.56,2.66,5.1.93,14.74,2,14.67,8.52C4102.14,279.76,4100.25,285.1,4097.65,290.69Zm98.06-6.55a1.1,1.1,0,0,0,.25.48c-.29,1.93-.74,3.84-1.2,5.73-.29,1.2-.39,2.42-.77,3.61a3.41,3.41,0,0,0-.22,1.57,1,1,0,0,0-.07.23.24.24,0,0,0,0,.08,5.33,5.33,0,0,0-1.68,3,1.27,1.27,0,0,0-.36.47c-.05.11-.09.22-.14.32h0a5.32,5.32,0,0,0-.21.5,13.78,13.78,0,0,1-3.57,3.75,6.49,6.49,0,0,0-2.65.78c-1.53,0-2.89.74-4.45.85a62,62,0,0,0-7.34.69,1.55,1.55,0,0,0-.64-.13l-.28,0a1.38,1.38,0,0,0-.67.28c-5.92.08-11.87-.18-17.75-.52a123.48,123.48,0,0,1-12.26-1.61c-4.05-.65-6.72-2.73-9-5.91a38,38,0,0,1-4.95-10.07c-.52-1.64-.6-3.37-1.12-5A5.19,5.19,0,0,0,4126,282a2.63,2.63,0,0,0-.22-.93,21.1,21.1,0,0,1-.7-3.36,25.65,25.65,0,0,1,.08-2.91v-.09a1.45,1.45,0,0,0,.33-.52c.11-3.23,1.4-3.52,2.73-4.88.64-.26,1.37-.37,2-.67s1.29-.7,2-1a1.35,1.35,0,0,0,.66.1c3.2-.23,6.32-1.05,9.52-1.34,3.48-.31,6.91-.78,10.41-.93s6.82,0,10.24.14,6.79-.07,10.18.22a1.49,1.49,0,0,0,.48,0l.24,0,.8,0a1.24,1.24,0,0,0,.36.19c2.69.93,5.85.91,8.66,1.35,1.49.24,3,.41,4.45.68a13,13,0,0,1,4.12,2,1.49,1.49,0,0,0,.49.24,1.34,1.34,0,0,0,.68.58,1.53,1.53,0,0,0,.31.53,9,9,0,0,1,.61.72,4.94,4.94,0,0,1,.5.83,2.68,2.68,0,0,1,.18,1.14,2.24,2.24,0,0,0,.47,1.38l.18.23c0,.26.06.53.08.77a30.54,30.54,0,0,1,.11,5.65A3.2,3.2,0,0,0,4195.71,284.14Z" transform="translate(-3351.76 -55.98)"/><path class="cls-15" d="M4019,264.94s-.43,6.59-.44,6.61c-.07,1.11,1.3,1.1,2.07,1.46a4.43,4.43,0,0,1,2.32,2.49,31.87,31.87,0,0,1,1.49,5.86c.57,3.44,1.17,6.84,2,10.25.18.75.35,1.51.58,2.26a32.81,32.81,0,0,0,2,5s1.22,2.91,6.41,4.48c1,.3,1.94.56,2.91.81a73,73,0,0,0,9.52,1.69,143.2,143.2,0,0,0,14.34.92c5.09.09,10.19.1,15.28-.1,2.56-.11,5.09-.36,7.63-.61,0,0,7.08-.72,11.55-8.64.86-1.29,1.68-2.6,2.48-3.92a82,82,0,0,0,4.45-8.25c1.16-2.52,2.12-5.15,3.48-7.59a5.29,5.29,0,0,1,3.51-2.63,16.07,16.07,0,0,1,4.14-.4c1.48.11,3.15.18,4.27,1.23a9.45,9.45,0,0,1,2.12,3.71s3.52,9.51,4.31,11.05c0,0,3.48,8.37,5.9,11a15.77,15.77,0,0,0,8.26,5,96.83,96.83,0,0,0,12.85,1.47c4.95.41,9.9.75,14.87.88,2.82.08,5.63,0,8.44,0,0,0,10.29-.11,16.3-4.51,0,0,2.89-1.76,4.87-8.64.36-1.35.68-2.71,1.05-4.07.63-2.37,1.34-4.79,1.77-7.2.1-.58.19-1.15.34-1.72a11,11,0,0,1,1-2.73,6.14,6.14,0,0,1,1.61-1.76,10.47,10.47,0,0,1,1.91-.92c1.07-.5.71-2.59.69-3.51,0-1.29,0-2.57,0-3.86,0-.93-.14-1.75-1.22-2-2-.52-4.09-1.11-6.15-1.62a139.92,139.92,0,0,0-14.53-2.92c-3.09-.42-6.23-.82-9.35-1-2.4-.14-4.81-.22-7.22-.31-4.24-.15-8.48-.29-12.72-.2-4.73.08-9.47.71-14.17,1.23-1,.12-2.05.23-3.07.37-3.84.55-8,1.08-11.61,2.52-1.33.54-2.45,1.38-3.7,2-1.5.75-3.51.47-5.13.42-1.93-.06-3.85-.12-5.78-.1a9.24,9.24,0,0,1-3.43-.44c-1.68-.66-3.18-1.81-4.83-2.61a34.37,34.37,0,0,0-6-1.86c-.9-.24-1.81-.49-2.72-.69-2.21-.51-4.43-1-6.66-1.38a165,165,0,0,0-39.32-2l-1.91.16q-2.47.21-5,.48-3.37.36-6.74.8c-2.39.32-4.77.66-7.13,1.11s-4.42,1-6.6,1.57C4019.51,263.77,4019.07,264,4019,264.94Z" transform="translate(-3351.76 -55.98)"/><path class="cls-16" d="M4138,266.75s-10.32.9-12,4.92a14.82,14.82,0,0,0-.52,7.13s1.51,8.12,3.33,12.06c0,0,3.75,11.2,10.48,12.88,0,0,7.2,2.07,21.52,2.52,0,0,21.32.42,26.94-2.7,0,0,4.82-2.74,6.37-10.07,0,0,1.58-7.55,1.86-11.6,0,0,.71-7.33-2.61-10.86,0,0-1.86-3.08-13.1-4.28a150.61,150.61,0,0,0-33.15-1S4139.93,266.51,4138,266.75Z" transform="translate(-3351.76 -55.98)"/><path class="cls-17" d="M4065.71,262.48c-2.51,0-5,0-7.54,0-4.88.1-9.74.31-14.6.75s-10.83,1.16-13.49,5.78a10.86,10.86,0,0,0-1.28,4.48s-1.36,15.49,3.14,23.27c0,0,1.25,4.67,15.49,6.48,0,0,21,1.57,26.05,1,0,0,15.07-.22,18.4-4.73a54.37,54.37,0,0,0,7.1-11.85c1.67-3.91,3.2-8.46,3.3-12.71a10.42,10.42,0,0,0-.46-3.64c-1-2.83-5.5-4.15-8.14-5a56.84,56.84,0,0,0-6.73-1.48S4073.42,262.45,4065.71,262.48Z" transform="translate(-3351.76 -55.98)"/><path class="cls-18" d="M4065.71,262.48c-2.51,0-5,0-7.54,0-4.88.1-9.74.31-14.6.75s-10.83,1.16-13.49,5.78a10.86,10.86,0,0,0-1.28,4.48s-1.36,15.49,3.14,23.27c0,0,1.25,4.67,15.49,6.48,0,0,21,1.57,26.05,1,0,0,15.07-.22,18.4-4.73a54.37,54.37,0,0,0,7.1-11.85c1.67-3.91,3.2-8.46,3.3-12.71a10.42,10.42,0,0,0-.46-3.64c-1-2.83-5.5-4.15-8.14-5a56.84,56.84,0,0,0-6.73-1.48S4073.42,262.45,4065.71,262.48Z" transform="translate(-3351.76 -55.98)"/><path class="cls-19" d="M4065.71,262.48c-2.51,0-5,0-7.54,0-4.88.1-9.74.31-14.6.75s-10.83,1.16-13.49,5.78a10.86,10.86,0,0,0-1.28,4.48s-1.36,15.49,3.14,23.27c0,0,1.25,4.67,15.49,6.48,0,0,21,1.57,26.05,1,0,0,15.07-.22,18.4-4.73a54.37,54.37,0,0,0,7.1-11.85c1.67-3.91,3.2-8.46,3.3-12.71a10.42,10.42,0,0,0-.46-3.64c-1-2.83-5.5-4.15-8.14-5a56.84,56.84,0,0,0-6.73-1.48S4073.42,262.45,4065.71,262.48Z" transform="translate(-3351.76 -55.98)"/><polygon class="cls-1" points="689.78 248.92 695.72 247.58 696.65 248.47 695.26 249.78 698.15 250.65 701.5 247.47 701.5 243.87 698.73 246.51 697.79 245.61 701.5 242.09 701.5 238.33 697.63 242.03 692.8 246.6 692.79 244.83 701.5 236.5 697.62 236.5 689.78 243.94 689.78 248.92"/><polygon class="cls-1" points="702.83 240.78 708.76 235.14 709.7 236.03 702.83 242.54 706.64 242.54 714.55 235.03 714.55 231.43 711.78 234.07 710.84 233.17 714.55 229.65 714.55 225.89 710.67 229.59 705.84 234.17 705.84 232.39 714.55 224.06 710.66 224.06 702.83 231.5 702.83 240.78"/><polygon class="cls-1" points="715.89 228.48 721.83 222.85 722.76 223.73 715.89 230.25 719.7 230.25 727.62 222.74 727.62 219.14 724.84 221.77 723.9 220.87 727.62 217.35 727.62 213.6 723.74 217.29 718.9 221.87 718.9 220.09 727.62 211.77 723.73 211.77 715.89 219.2 715.89 228.48"/><line class="cls-1" x1="731.95" y1="209.5" x2="731.95" y2="207.73"/><polyline class="cls-1" points="728.94 206.84 728.94 216.12 734.87 210.48 735.8 211.37 728.94 217.88 732.75 217.88 740.66 210.37 740.66 206.77 737.89 209.41 736.94 208.51"/><polyline class="cls-1" points="682.66 243.43 683.6 244.32 681.45 246.36 684.32 247.69 688.45 243.32 688.45 239.72 685.68 242.36 684.74 241.46 688.45 237.94 688.45 234.19 684.58 237.88 679.74 242.46 679.74 240.68 688.45 232.35 684.57 232.35 676.73 239.79"/><polygon class="cls-1" points="689.78 236.63 695.72 231 696.65 231.88 689.78 238.4 693.59 238.4 701.5 230.88 701.5 227.28 698.73 229.92 697.79 229.02 701.5 225.5 701.5 221.75 697.63 225.44 692.8 230.02 692.79 228.24 701.5 219.91 697.62 219.91 689.78 227.35 689.78 236.63"/><polygon class="cls-1" points="702.83 224.25 708.76 218.62 709.7 219.5 702.83 226.02 706.64 226.02 714.55 218.5 714.55 214.9 711.78 217.54 710.84 216.64 714.55 213.12 714.55 209.37 710.67 213.06 705.84 217.64 705.84 215.86 714.55 207.53 710.66 207.53 702.83 214.97 702.83 224.25"/><line class="cls-1" x1="718.9" y1="205.24" x2="718.9" y2="203.46"/><path class="cls-1" d="M4079.37,253.15" transform="translate(-3351.76 -55.98)"/><polyline class="cls-1" points="715.89 203.44 715.89 211.85 721.83 206.22 722.76 207.1 715.89 213.62 719.7 213.62 727.62 206.11 727.16 204.72 724.84 205.14 723.9 204.24"/><polygon class="cls-1" points="676.73 232.56 682.67 226.93 683.6 227.81 676.73 234.33 680.54 234.33 688.46 226.81 688.46 223.21 685.68 225.85 684.74 224.95 688.46 221.43 688.46 217.68 684.58 221.37 679.75 225.94 679.74 224.17 688.46 215.84 684.57 215.84 676.73 223.28 676.73 232.56"/><polygon class="cls-1" points="689.78 220.12 695.72 214.49 696.65 215.37 689.78 221.89 693.6 221.89 701.51 214.38 701.51 210.77 698.73 213.41 697.79 212.51 701.51 208.99 701.51 205.23 697.63 208.93 692.8 213.51 692.8 211.73 701.51 203.41 697.62 203.41 689.78 210.84 689.78 220.12"/><path class="cls-1" d="M4057.6,257.17" transform="translate(-3351.76 -55.98)"/><path class="cls-1" d="M4065.78,253.15" transform="translate(-3351.76 -55.98)"/><line class="cls-1" x1="711.78" y1="201.09" x2="710.84" y2="200.19"/><polyline class="cls-1" points="702.83 204.02 702.83 207.8 707.79 203.09 709.7 203.05 702.83 209.56 706.64 209.56 712.26 204.23"/><polygon class="cls-1" points="676.73 216.04 682.67 210.41 683.6 211.29 676.73 217.81 680.54 217.81 688.46 210.3 688.46 206.7 685.68 209.33 684.74 208.44 688.46 204.92 686.46 205.4 684.58 204.85 679.75 209.43 679.74 207.65 682.09 205.41 678.16 205.41 676.73 206.76 676.73 216.04"/><line class="cls-1" x1="708.76" y1="251.62" x2="709.7" y2="252.5"/><polyline class="cls-1" points="714.55 250.65 714.55 247.91 711.78 250.54 710.84 249.64 714.55 246.12 714.55 242.37 710.67 246.06 705.84 250.64 705.84 248.87 714.55 240.53 710.66 240.53 702.83 247.98"/><polygon class="cls-1" points="715.89 244.96 721.83 239.32 722.76 240.21 715.89 246.72 719.7 246.72 727.62 239.22 727.62 235.61 724.84 238.25 723.9 237.35 727.62 233.83 727.62 230.07 723.74 233.77 718.9 238.35 718.9 236.57 727.62 228.25 723.73 228.25 715.89 235.68 715.89 244.96"/><polygon class="cls-1" points="728.94 232.59 734.87 226.96 735.8 227.84 728.94 234.36 732.75 234.36 740.66 226.85 740.66 223.25 737.89 225.88 736.94 224.99 740.66 221.47 740.66 217.71 736.79 221.4 731.95 225.98 731.95 224.2 740.66 215.88 736.77 215.88 728.94 223.31 728.94 232.59"/><polyline class="cls-1" points="742 210.81 742 220.09 747.94 214.46 748.87 215.34 742 221.85 745.81 221.85 750.64 217.27 750.64 213.08 750.01 212.48 750.64 211.88 750.62 209.36 749.85 208.9 745.01 213.47 745.01 211.7"/><polyline class="cls-1" points="721.15 250.65 727.62 244.47 723.73 244.47 717.59 250.3"/><polyline class="cls-1" points="725.72 250.71 727.62 250.05 727.62 246.3 723.75 249.99"/><path class="cls-1" d="M4079.38,307.82" transform="translate(-3351.76 -55.98)"/><polygon class="cls-1" points="728.96 248.89 734.9 243.25 735.83 244.14 728.96 250.65 732.77 250.65 740.68 243.14 740.68 239.54 737.91 242.18 736.97 241.28 740.68 237.76 740.68 234 736.81 237.69 731.97 242.27 731.97 240.5 740.68 232.17 736.8 232.17 728.96 239.61 728.96 248.89"/><polygon class="cls-1" points="750.64 229.51 750.01 228.91 750.64 228.32 750.64 224.58 749.85 225.33 745.02 229.91 745.02 228.13 750.64 222.76 750.64 219.81 749.84 219.81 742.01 227.24 742.01 236.52 747.95 230.88 748.88 231.77 742.01 238.29 745.82 238.29 748.57 233.31 750.64 229.51"/><polyline class="cls-1" points="791.51 251.2 798.91 244.16 795.19 244.16 787.69 251.25"/><polyline class="cls-1" points="797.05 252 798.91 249.49 798.91 245.91 795.2 249.43"/><path class="cls-1" d="M4150.67,307.17" transform="translate(-3351.76 -55.98)"/><polygon class="cls-1" points="800.18 248.24 805.86 242.86 806.75 243.71 800.18 249.92 803.83 249.92 811.4 242.76 811.4 239.33 808.75 241.84 807.84 240.99 811.4 237.63 811.4 234.05 807.69 237.57 803.06 241.93 803.06 240.24 811.4 232.3 807.68 232.3 800.18 239.39 800.18 248.24"/><polygon class="cls-1" points="812.69 236.52 818.37 231.14 819.26 231.99 812.69 238.2 816.33 238.2 823.9 231.04 823.9 227.61 821.25 230.12 820.35 229.26 823.9 225.91 823.9 222.32 820.2 225.85 815.57 230.21 815.57 228.52 823.9 220.58 820.18 220.58 812.69 227.67 812.69 236.52"/><polygon class="cls-1" points="825.18 224.73 830.86 219.35 831.75 220.2 825.18 226.41 828.83 226.41 836.4 219.25 836.4 215.82 833.74 218.33 832.84 217.47 836.4 214.12 836.4 210.54 832.69 214.06 828.06 218.42 828.06 216.73 836.4 208.79 832.67 208.79 825.18 215.88 825.18 224.73"/><polyline class="cls-1" points="843.04 209.56 837.68 214.51 841.33 214.51 845.95 210.14"/><polyline class="cls-1" points="780.47 245.87 786.41 240.21 782.69 240.21 779.13 243.57"/><polyline class="cls-1" points="786.41 250.66 786.41 247.23 783.76 249.74 782.86 248.89 786.41 245.53 786.41 241.95 782.7 245.47"/><polygon class="cls-1" points="787.69 244.28 793.37 238.91 794.26 239.75 787.69 245.97 791.34 245.97 798.91 238.81 798.91 235.38 796.26 237.88 795.35 237.03 798.91 233.67 798.91 230.09 795.2 233.61 790.57 237.98 790.57 236.28 798.91 228.35 795.19 228.35 787.69 235.44 787.69 244.28"/><polygon class="cls-1" points="800.18 232.48 805.86 227.11 806.75 227.95 800.18 234.17 803.83 234.17 811.4 227.01 811.4 223.57 808.75 226.08 807.84 225.23 811.4 221.87 811.4 218.29 807.69 221.81 803.06 226.17 803.06 224.48 811.4 216.54 807.68 216.54 800.18 223.63 800.18 232.48"/><polygon class="cls-1" points="823.9 206.66 823.7 206.66 820.2 209.99 815.57 214.36 815.57 212.66 821.87 206.66 818.13 206.66 812.69 211.81 812.69 220.66 818.37 215.29 819.26 216.13 812.69 222.35 816.33 222.35 823.9 215.18 823.9 211.75 821.25 214.26 820.35 213.41 823.9 210.05 823.9 206.66"/><polygon class="cls-1" points="825.18 206.66 825.18 208.96 827.6 206.66 825.18 206.66"/><polygon class="cls-1" points="776.39 240.03 780.88 235.03 781.77 235.87 776.84 241.41 778.84 242.09 786.42 234.92 786.42 231.5 783.76 234 782.86 233.15 786.42 229.79 786.42 226.21 782.71 229.73 778.08 234.1 778.08 232.4 786.42 224.46 782.7 224.46 775.19 231.56 776.39 240.03"/><polygon class="cls-1" points="787.69 228.54 793.37 223.17 794.26 224.01 787.69 230.23 791.34 230.23 798.91 223.07 798.91 219.64 796.26 222.15 795.36 221.29 798.91 217.93 798.91 214.36 795.2 217.87 790.58 222.24 790.57 220.54 798.91 212.61 795.19 212.61 787.69 219.7 787.69 228.54"/><polygon class="cls-1" points="807.84 209.54 810.9 206.66 807.12 206.66 803.06 210.49 803.06 208.8 805.3 206.66 801.54 206.66 800.18 207.95 800.18 216.8 805.86 211.43 806.75 212.27 800.18 218.48 803.83 218.48 811.4 211.32 811.4 207.89 808.75 210.4 807.84 209.54"/><polygon class="cls-1" points="775.19 224.66 780.88 219.28 781.77 220.13 775.19 226.34 778.84 226.34 786.42 219.18 786.42 215.75 783.76 218.26 782.86 217.4 786.42 214.05 786.42 210.47 782.71 213.99 778.08 218.35 778.08 216.66 786.42 208.72 782.7 208.72 775.19 215.81 775.19 224.66"/><polygon class="cls-1" points="787.69 206.66 787.69 212.81 793.37 207.44 794.26 208.28 787.69 214.5 791.34 214.5 798.91 207.34 798.91 206.66 787.69 206.66"/><polyline class="cls-1" points="807.23 251.98 811.4 248.01 807.68 248.01 803.86 251.62"/><polyline class="cls-1" points="809.54 252.5 811.4 253.33 811.4 249.76 807.69 253.28"/><polygon class="cls-1" points="812.69 252.22 818.37 246.85 819.26 247.69 814.17 252.5 817.3 252.99 823.9 246.75 823.9 243.32 821.25 245.82 820.35 244.97 823.9 241.62 823.9 238.04 820.2 241.56 815.57 245.92 815.57 244.23 823.9 236.29 820.18 236.29 812.69 243.38 812.69 252.22"/><polygon class="cls-1" points="825.18 240.43 830.86 235.06 831.75 235.9 825.18 242.12 828.83 242.12 836.4 234.96 836.4 231.52 833.74 234.04 832.84 233.18 836.4 229.82 836.4 226.25 832.69 229.77 828.06 234.13 828.06 232.44 836.4 224.5 832.67 224.5 825.18 231.59 825.18 240.43"/><polygon class="cls-1" points="845.95 221.83 845.35 221.26 845.95 220.69 845.95 217.12 845.19 217.84 840.57 222.21 840.57 220.51 845.95 215.39 845.95 212.58 845.18 212.58 837.68 219.67 837.68 228.51 843.36 223.14 844.26 223.98 837.68 230.2 841.33 230.2 845.95 225.82 845.95 221.83"/><polyline class="cls-1" points="836.42 250.49 836.42 247.06 833.77 249.57 832.86 248.72 836.42 245.36 836.42 241.78 832.71 245.3 828.08 249.66 828.08 247.97 836.42 240.03 832.7 240.03 825.2 247.13 825.18 252.5 830.88 250.6 831.77 251.44"/><polygon class="cls-1" points="845.95 237.5 845.35 236.93 845.95 236.36 845.95 232.79 845.2 233.51 840.57 237.87 840.57 236.18 845.95 231.06 845.95 228.24 845.19 228.24 837.69 235.33 837.69 244.18 843.37 238.81 844.26 239.65 837.69 245.87 841.34 245.87 844.47 241.34 845.95 237.5"/><path class="cls-19" d="M4138,266.75s-10.32.9-12,4.92a14.82,14.82,0,0,0-.52,7.13s1.51,8.12,3.33,12.06c0,0,3.75,11.2,10.48,12.88,0,0,7.2,2.07,21.52,2.52,0,0,21.32.42,26.94-2.7,0,0,4.82-2.74,6.37-10.07,0,0,1.58-7.55,1.86-11.6,0,0,.71-7.33-2.61-10.86,0,0-1.86-3.08-13.1-4.28a150.61,150.61,0,0,0-33.15-1S4139.93,266.51,4138,266.75Z" transform="translate(-3351.76 -55.98)"/><path class="cls-20" d="M4173,97.47s-2.7.29-6.86,1.07a101.31,101.31,0,0,0-24,7.41s-1-13.92-17-15.93c0,0,1.58,3.78,2.7,14.73,0,0-18.57-11.19-38.65-9.07,0,0,19.63,10.11,17.77,17.17,0,0-45.52-16.34-71.55,13.67,0,0-16.93,25.35-37.24,36.4,0,0,4.83,10.09,0,24.92,0,0-2.63,21.38-9.7,21.2,0,0,21.25,77.68,27.94,97.81l1.49-36.72,4.84.53-1.86-8.3s51.69-55.79,64.33-58.26c0,0-19,26.13-30.5,33.19,0,0,65.45-4.24,106.36-42.72,0,0,8.17,44.84,37.55,53,0,0-10.41-13.77-10.78-25.07,0,0,13,19.77,19.71,26.13,0,0-1.86,46.25,0,62.49,0,0,24-64.15,34.89-85.42l1.55-25.11s4-16.25,7.37-15.54c-3.12-3.19-3.2-3.93-6.21-7.21a169,169,0,0,1-13.62-17.22c-4.48-6.25-6.21-11.13-10.95-17.21-5.5-7.07-8.58-14.47-15.59-20.21-2.07-1.69-9.64-5.68-12.18-6.63-5.17-1.94-8.35-6.61-13.81-6.26-4.68.3-9.35.52-14,1-.4,0-3.77.16-3.92.67a24.75,24.75,0,0,1,6.69-10.42Z" transform="translate(-3351.76 -55.98)"/></svg>