<svg id="Layer_1" data-name="Layer 1" xmlns="http://www.w3.org/2000/svg" viewBox="0 0 38.06 38.06"><defs><style>.cls-1{fill:#45a063;}.cls-2{fill:#fff;}</style></defs><title>twitter</title><circle class="cls-1" cx="19.03" cy="19.03" r="19.03"/><path class="cls-2" d="M19.77,17.75a3.14,3.14,0,0,1,1.9-3.5,3,3,0,0,1,3.18.73,4.26,4.26,0,0,0,1.93-.68s0,.71-1.24,1.61a7.63,7.63,0,0,0,1.66-.43A4.69,4.69,0,0,1,25.73,17,8.14,8.14,0,0,1,24,22.62,8.22,8.22,0,0,1,17.06,26a8.6,8.6,0,0,1-4.42-1.31A7.09,7.09,0,0,0,17,23.35a2.89,2.89,0,0,1-2.77-2l1.31,0a3.07,3.07,0,0,1-2.4-3s1,.47,1.34.35a3,3,0,0,1-.9-4A8.91,8.91,0,0,0,19.77,17.75Z" transform="translate(-0.89 -0.98)"/></svg>