<svg id="Layer_1" data-name="Layer 1" xmlns="http://www.w3.org/2000/svg" viewBox="0 0 226.06 320.48"><defs><style>.cls-1{fill:#45a063;}.cls-2{fill:#f1c38c;}.cls-3{fill:#a87d4f;opacity:0.4;}.cls-4{fill:#f0d0a7;}.cls-10,.cls-5{fill:#3b2315;}.cls-11,.cls-15,.cls-6,.cls-7,.cls-8{fill:none;}.cls-6{stroke:#f0d0a7;}.cls-10,.cls-11,.cls-12,.cls-13,.cls-14,.cls-15,.cls-16,.cls-6,.cls-7,.cls-8{stroke-miterlimit:10;}.cls-10,.cls-7{stroke:#3b2315;}.cls-8{stroke:#231f20;}.cls-9{fill:#c3996b;}.cls-11,.cls-12,.cls-15{stroke:#45a063;}.cls-11{stroke-width:2px;}.cls-12,.cls-14{fill:#fff;}.cls-13{fill:#2aa9e0;opacity:0.5;}.cls-13,.cls-14{stroke:#e84138;}.cls-16{fill:#603914;stroke:#603914;}</style></defs><title>visualmarque</title><polygon class="cls-1" points="27.1 184.68 82.48 132.1 91.16 140.34 27.1 201.17 62.65 201.17 136.48 131.07 136.48 97.48 110.6 122.06 101.81 113.68 136.48 80.84 136.48 45.8 100.32 80.25 55.2 122.96 55.19 106.39 136.48 28.69 100.2 28.69 27.1 98.1 27.1 184.68"/><path class="cls-2" d="M139.4,287.17l-1.77,29.24s50.81,40.49,53.79,44.26c0,0,44.59-31.77,52.14-35.14L245,287.17Z" transform="translate(-86.92 -40.19)"/><path class="cls-3" d="M189.53,310.69c-10,1.92-20.49,2-29.9-2.08-8.91-3.9-12.37-11.79-15.93-19.75-1-2.14-4.23-.3-3.28,1.82,4.07,9.12,6.6,15.85,15.87,20.85,9.62,5.2,31.61,7,38.14,2.44C196.4,312.58,191.92,310.23,189.53,310.69Z" transform="translate(-86.92 -40.19)"/><path class="cls-3" d="M240.15,288.19c-.36,6.23-4.51,10.55-9.06,14.62-5,4.52-10,6.13-16.83,6.13a1.81,1.81,0,1,0,0,3.61c7.32,0,12.54-1.61,18.22-6.08,6-4.74,11-10.65,11.47-18.28C244.09,285.86,240.29,285.88,240.15,288.19Z" transform="translate(-86.92 -40.19)"/><path class="cls-4" d="M294.58,211.62a8.5,8.5,0,0,0-.08-1.14,5.48,5.48,0,0,0-.67-5.85c.57-2.54-1.67-5.19-5.22-5.19a4.29,4.29,0,0,0-4.41,3.26,11.52,11.52,0,0,0-8,2.19c0-3.2,0-6.35-.08-9.39-.32-18.3-7-32.79-20.17-46a50.57,50.57,0,0,0-11.36-9,30.31,30.31,0,0,0,1.35-2.94c4-10.34-10.21-15.2-17.47-9.65-8.7,6.65-17.21,13.44-26.81,18.91C190.94,153,178.6,155.61,166.74,159c-1.28.36-2.56.74-3.83,1.14,3.39-3.22,6.81-6.39,10.05-9.63,9.29-9.26-5.47-23.32-14.78-14-10,10-20.46,19.56-29,30.82a69.88,69.88,0,0,0-7,11.45c-.42,0-.84,0-1.25-.07-9.19-.9-12.8,10.06-8.13,16.05a7.7,7.7,0,0,0-1.47,3.41,34.53,34.53,0,0,0-.31,9.7c-.23,1-.49,2-.64,2.93a12.05,12.05,0,0,0-.15,1.3c-.38-2.07-.79-4.14-1.34-6.18-.78-2.88-1.93-4-4.35-3.19.13-1.17.4-2.07.44-3.27.28-7-13.22-7-13.5,0-.32,8-2.12,15,2.66,22.22,2,3,5.13,8,8.64,10.74.5,1.71,3.08,3.75,5.5,3.75,1.83,0,2-1.43,2.71-2.55.26,2.23-.06,4.52.56,6.72.53,6.09.55,11.85,7,14.89a4.59,4.59,0,0,0,.48.17c4.91,8.16,10.7,15.84,15.7,23.95,4.29,7,7.86,14.15,13.08,20.59,11.1,13.64,26.06,14.78,43.12,13.77,8.52-.51,18,.69,26.37-1.24,9.44-2.2,15.11-10.16,20.57-17.35s10.47-14.29,15.71-21.53c5.46-7.54,12-14.64,16-23a34.26,34.26,0,0,0,1.88-4.55c.23,0,.05-2,.28-2a2.86,2.86,0,0,0,4.67,1.14c.89-.87,2.57-1.14,3.25-2.13a6.31,6.31,0,0,0,2-2.66c.49,0,.54-.76,1-1a4.79,4.79,0,0,0,1.87-2.67c.07-.18,1.14.05,1.2-.13,1.78-1.46,2.21-3.37,3.75-5.35a14.2,14.2,0,0,0,3.22-6.87C295.28,220.19,294.48,216.38,294.58,211.62Zm-182,7.71c-.17.42-.29.86-.43,1.29-.3-.69-.57-1.39-.83-2.09-.09-.56-.19-1.12-.29-1.68A10.47,10.47,0,0,0,112.59,219.33Z" transform="translate(-86.92 -40.19)"/><path class="cls-5" d="M262.73,182.1a10.12,10.12,0,0,1-1.31-.79,1.52,1.52,0,0,0-1-.23,5.93,5.93,0,0,0-3.24-2.52,18.85,18.85,0,0,1-5.34-1.44,3.47,3.47,0,0,0-1.68-.4c.1-.56-1.79-1.25-2.56-1.15-.57.07-1.14.12-1.71.16a7.36,7.36,0,0,0-1.67-.77c-.86-.21-4.13-.73-4.87-.16-3.51,0-4.83.43-8.35.33-1-.08-1.9-.15-2.86-.21-3.78-.23-8.56-.4-11.66,2a3.24,3.24,0,0,0-1.84,1.25,2,2,0,0,0-1.63,1.31,8.45,8.45,0,0,0-.42,1.29c-.06.22-.13.43-.21.65h0s0,0,0,0h0c-1.56.81-2.26,4.46-.33,4.22a22.82,22.82,0,0,0,4.84-1.95,4.07,4.07,0,0,0,2,.07c7.82-1.65,14.94-1,22.86-1,1.1,0,2.35.49,3-.08,2.46,1.35,4.91.21,7.71.29a21.08,21.08,0,0,0,5.72,1.93,2.5,2.5,0,0,0,1.67-.32c.34.23.69.44,1.05.64C264.69,187.28,264.9,183.19,262.73,182.1Z" transform="translate(-86.92 -40.19)"/><path class="cls-5" d="M127.64,178.49c-.11.08-.12.12,0,0Z" transform="translate(-86.92 -40.19)"/><path class="cls-5" d="M176.3,177.66c-1.11-4.83-5-4.11-9.34-4.47a.87.87,0,0,0-.17-.07c-7.3-1.06-14.73-1.52-22.09-1.91-3.83-.2-9.1-.94-12.84.6l-.1,0a2,2,0,0,0-2.34,1.26c-.28.66-1.43,1.26-2.07,1.57a7.44,7.44,0,0,0-2.31,1.24,1.77,1.77,0,0,0,0,2.55,2,2,0,0,0,2.69,0l-.09.1a.56.56,0,0,1,.15-.1c.27-.14.55-.26.84-.38s.54-.28.81-.42a1.64,1.64,0,0,0,1.72.37c6.18-2,14.63-.13,21,0,7.62.2,16.74,2.7,24.11,3.89C177.75,182.12,176.63,179.09,176.3,177.66Z" transform="translate(-86.92 -40.19)"/><path class="cls-3" d="M246,149.23c-2.17-1.83-4.41-3.58-6.61-5.39a1.87,1.87,0,0,0-.88-3c.33.11-.17-.16,0,0a3.55,3.55,0,0,1-.34-.33,8.62,8.62,0,0,1-.62-.87l0,0a1.83,1.83,0,0,0,.49-1,1.57,1.57,0,0,0,.35-1.55,13.8,13.8,0,0,0-.51-1.45,6.68,6.68,0,0,0,1.7-3.12,2,2,0,0,0-1.94-2.23,1.9,1.9,0,0,0-3-.54l-.5.52c.08-.23.17-.44.23-.68.6-2.26-3.06-3.21-3.66-1-1.36,5.16-6.19,9.76-11.74,13.69a98.5,98.5,0,0,1-10.33,3.09,1.72,1.72,0,0,0-.73,3c-7.61,3.57-15.39,6.4-24.27,4.78-2.39-.43-3.41,3-1,3.48l.27,0a11.18,11.18,0,0,0-3.12,1.8,1.45,1.45,0,0,0-.58,1.27c-4.19.36-8.11,0-11.14-1.67-2.13-1.15-4,2-1.91,3.12,10.33,5.56,27.18-.39,36.59-5.08a91.68,91.68,0,0,0,10.49-6.27L217,148c4.15-2,10.72-3.62,15.42-6.54a19.84,19.84,0,0,0,1.92,2.76c2.44,2.91,6.07,5.1,9,7.56C245.15,153.32,247.84,150.78,246,149.23Z" transform="translate(-86.92 -40.19)"/><path class="cls-3" d="M165.12,138.88c-1.46,2-3.65,3.42-5.58,5A25.07,25.07,0,0,0,155.7,148a1.62,1.62,0,0,0-1.09.49,3.86,3.86,0,0,1-2.37,1,1.77,1.77,0,0,0-1.34,2c-1.55.26-3.08.47-4.45.57-2.08.16-2.38,2.84-.87,3.47-.72,1.73-2.65,3.12-4,4.28a21.32,21.32,0,0,1-5.15,3.28,13,13,0,0,1-3,.7c-2.41.25-2.44,3.86,0,3.61.25,0,.48-.08.71-.12a1.84,1.84,0,0,0,1.1.05,19.12,19.12,0,0,0,4.87-2c6.91-3.59,12-10.48,20.31-11.84,1.76-.29,1.67-2.22.56-3.08a12.89,12.89,0,0,0,2.59-3.27,1.82,1.82,0,0,0,.09-1.43,28.66,28.66,0,0,0,4.78-4.88C169.78,138.77,166.49,137,165.12,138.88Z" transform="translate(-86.92 -40.19)"/><path class="cls-3" d="M200,201.17a3.12,3.12,0,0,1-1.51-.17,1,1,0,0,0-.14-1.43,4.6,4.6,0,0,0-3.41-1,1,1,0,0,0-.39,0c-4,.43-5.22,1.56-7.08,5-2.34,4.29-5.06,8.32-6.9,12.85a.68.68,0,0,0,.12.76c-.22.28-1.67-.54-1.51-.28-.91,1.14-.44,3.29-1.53,4.19-.73.4-1.48.77-2.23,1.1a.72.72,0,0,0-.47.68,17.51,17.51,0,0,1-11.14,1.6c-1.2-.18-1.72,1.56-.51,1.74,6.82,1,12.25-.54,16.63-4.36a22.26,22.26,0,0,0,6.93-6.9c3.11-4.9,3.47-14.72,12.44-10.71.95.43,1.79-.67,1.29-1.29C201.66,202.59,201.16,201,200,201.17Z" transform="translate(-86.92 -40.19)"/><path class="cls-3" d="M273.59,201.49a1,1,0,0,0-1.26-.34c-1.34.61-3.32.18-3.73,1.49-2,3.32-1,10.28-2.05,13-.26.7-1.76,1.6-1.14,1.54-1.4,2.66-1.6,4.94-4.24,4.67a.77.77,0,0,0-.9.75c-5.41,3.05-10.85,3-16.68,3.78.31-.11,3.88.51,4.18.38,1.12-.47-3.07-.86-4.18-.38-3.6,1.53-6.49-.07-10.31,0-3,.08-7.83,1.65-10.18-.73-.72-.72-4.5-1.32-4.29-.54-5.28-1.52-8.52-2.43-10.64-7.69-.43-1.07-2.27-.61-1.83.48,3.67,9.13,12.57,11.11,21.93,12.25,12,1.46,23.22.72,33.56-5.25.1-.06,1.78-1.08,1.85-1.16a14.1,14.1,0,0,0,6-7.35c.95-2.24.67-7.08,1.48-10.43a4.2,4.2,0,0,1,2.58-2.76A.9.9,0,0,0,273.59,201.49Z" transform="translate(-86.92 -40.19)"/><path class="cls-3" d="M196.81,251.16a5.42,5.42,0,0,0-.81.05,4.82,4.82,0,0,0-2.28-.21c-1.23.67-2.68.09-5.48,0a9.2,9.2,0,0,1-2.56-.78.94.94,0,0,0-1.2.25c-2-.63-3.31-1.86-2.85-4,.24-1.13-1.34-2.45-1.57-1.31-1.42,7.07,3.84,7.64,8.89,7.66a20.07,20.07,0,0,0,2.68,0c2.18-.16,5-.4,6.66-1.76A10.41,10.41,0,0,0,196.81,251.16Z" transform="translate(-86.92 -40.19)"/><path class="cls-6" d="M285.11,201.16s7.18-5.66,8.72,3.47c0,0,3.21,16.13-3.68,26.05,0,0-5.7,8.12-9.86,11.61,0,0-5.11,7.06-8.31,1.67" transform="translate(-86.92 -40.19)"/><path class="cls-6" d="M111.44,223.79s-.35,16.93,0,18.39a28.47,28.47,0,0,0,6.75,13.19c2.28,3.53,6.5,8.89,8.78,12.41,4.08,6.29,6.86,10.86,10.93,17.14a113.22,113.22,0,0,0,11.28,14.66A42.11,42.11,0,0,0,161.07,309a44.71,44.71,0,0,0,11,4.12c4.09.93,8.66.54,12.85.68,8,.26,16.24,0,24.27-.38A38.62,38.62,0,0,0,220,311.68c3.78-1.37,7.25-5.21,10-7.91a104.28,104.28,0,0,0,9-10.19c1.57-2,3.09-4.05,4.58-6.11q8.61-11.93,17.17-23.89,2.46-3.42,5.07-6.72c3.8-4.77,6.77-12.05,6.9-18.06.08-3.12,1.83-11.88,1.06-15" transform="translate(-86.92 -40.19)"/><path class="cls-6" d="M102.22,194.66s-12.55-3.57-11.47,9.41a51.53,51.53,0,0,0,.15,7.56c.3,3.43,1.62,8.09,4.17,11.09,5.39,6.34,5.77,8.67,9.82,12,0,0,3.91,4.62,6.41-1.13" transform="translate(-86.92 -40.19)"/><path class="cls-7" d="M211.35,184.34A31.18,31.18,0,0,1,212,181,9.26,9.26,0,0,1,215.3,177c5.35-3.55,13.69-2.4,19.82-2.44a60,60,0,0,1,16.57,1.93,33.17,33.17,0,0,1,8.23,3.52c2.66,1.61,3.93,4.7,5.38,7.25-2.93-2.35-7.84-2.94-11.43-3.54a108.93,108.93,0,0,0-27.36-.79,62.29,62.29,0,0,0-13.72,2.38l-1.47.58Z" transform="translate(-86.92 -40.19)"/><path class="cls-7" d="M123.06,179.24s27.75-5.66,53.24,3.21v-4.79c0-4.86-9.18-4.79-12.61-5.19-6.61-.76-13.29-1.26-19.95-1.42-1.9-.05-3.8-.09-5.7,0-.89,0-7.07.14-7.69.72Z" transform="translate(-86.92 -40.19)"/><path class="cls-8" d="M211.13,185.91" transform="translate(-86.92 -40.19)"/><path class="cls-9" d="M194.31,209.37A48,48,0,0,1,192.12,225a28.74,28.74,0,0,1-3.52,7.19c-1.54,2.19-3.24,4.19-4.67,6.37a22.7,22.7,0,0,0-1.87,3.37,8,8,0,0,0-.71,3.63c0,.15,0,.31,0,.46l.11.44a2.89,2.89,0,0,0,.28.86,4.23,4.23,0,0,0,1,1.49,6.64,6.64,0,0,0,3.33,1.52,29.12,29.12,0,0,0,3.89.4c1.31.09,2.62.15,3.94.19a46,46,0,0,0,7.87-.32,40.75,40.75,0,0,1-7.88.81c-1.32,0-2.65,0-4,0a28.6,28.6,0,0,1-4-.27,7.06,7.06,0,0,1-3.79-1.65,5.15,5.15,0,0,1-1.2-1.76,3.61,3.61,0,0,1-.35-1l-.13-.52c0-.18,0-.35,0-.53a8.88,8.88,0,0,1,.74-4.06,21.75,21.75,0,0,1,1.92-3.56c1.49-2.22,3.24-4.23,4.75-6.34a31.41,31.41,0,0,0,3.55-6.92,42.92,42.92,0,0,0,2-7.58A68.69,68.69,0,0,0,194.31,209.37Z" transform="translate(-86.92 -40.19)"/><path class="cls-9" d="M161.3,264.62a58,58,0,0,0,7.3,2.89c1.23.44,2.5.79,3.74,1.19s2.53.68,3.79,1a91.76,91.76,0,0,0,15.45,2.48c2.59.27,5.2.25,7.81.31,1.31,0,2.61-.13,3.91-.19.65,0,1.31-.05,2-.11l1.94-.22c1.3-.15,2.6-.26,3.89-.46l3.85-.74c.64-.13,1.3-.21,1.93-.38l1.9-.5,3.81-1a69.67,69.67,0,0,1-15.29,3.85l-1.95.29c-.66.07-1.32.09-2,.13-1.32.08-2.63.18-4,.24-2.64,0-5.28,0-7.91-.23a84.62,84.62,0,0,1-15.57-2.73A66.91,66.91,0,0,1,161.3,264.62Z" transform="translate(-86.92 -40.19)"/><path class="cls-10" d="M201.79,67.29S222,71.35,222.58,86.23c0,0,8.67-17.59,27.67-13.53,0,0-16.63-9-21.38-5.41,0,0-11.87-11.73-22.8-9.48,0,0,11.4,2.71,13.77,9C219.84,66.84,209.39,63.68,201.79,67.29Z" transform="translate(-86.92 -40.19)"/><path class="cls-5" d="M180.86,65c-2.08.2-4.15.45-6.2.8s-4.1.7-6.13,1.16a72,72,0,0,0-11.87,3.64,42.18,42.18,0,0,0-10.74,6.07,27.22,27.22,0,0,0-7.78,9.53,24.8,24.8,0,0,1,3-5.53,29.4,29.4,0,0,1,4.32-4.6,32.15,32.15,0,0,1,5.19-3.62,45.78,45.78,0,0,1,5.67-2.78,65.42,65.42,0,0,1,12.09-3.46A68,68,0,0,1,180.86,65Z" transform="translate(-86.92 -40.19)"/><path class="cls-5" d="M188.49,75.63c-2.15,1-4.3,2.08-6.42,3.18s-4.25,2.17-6.34,3.31c-4.19,2.27-8.34,4.61-12.32,7.21A82.07,82.07,0,0,0,152,97.86a31.07,31.07,0,0,0-4.7,5.29,12.89,12.89,0,0,0-2.53,6.54,12.71,12.71,0,0,1,2.11-6.81,31.93,31.93,0,0,1,4.59-5.58,75.21,75.21,0,0,1,11.38-8.81q6.07-3.83,12.51-7C179.66,79.31,184,77.33,188.49,75.63Z" transform="translate(-86.92 -40.19)"/><path class="cls-5" d="M198.94,80.82c-1.31.46-2.62.9-3.92,1.4s-2.6,1-3.89,1.46c-2.56,1-5.12,2.08-7.6,3.29a50,50,0,0,0-7.15,4.08,21.27,21.27,0,0,0-3.13,2.63,11.07,11.07,0,0,0-2.34,3.38,10.27,10.27,0,0,1,2-3.7,21,21,0,0,1,3-2.93,37.9,37.9,0,0,1,7.18-4.36,68.83,68.83,0,0,1,15.84-5.25Z" transform="translate(-86.92 -40.19)"/><path class="cls-5" d="M116.29,118.26c-.79,1.69-1.57,3.39-2.28,5.11s-1.45,3.44-2.1,5.18c-1.32,3.48-2.56,7-3.58,10.57A93.59,93.59,0,0,0,105.9,150a54.08,54.08,0,0,0-.53,5.54,49.63,49.63,0,0,0,0,5.59,43.07,43.07,0,0,1-.22-11.23,69.22,69.22,0,0,1,2.23-11,90.23,90.23,0,0,1,3.83-10.58A79.63,79.63,0,0,1,116.29,118.26Z" transform="translate(-86.92 -40.19)"/><path class="cls-5" d="M211.13,92.66c-1.73,4.57-3.68,9.06-5.73,13.5s-4.27,8.79-6.58,13.11a138.5,138.5,0,0,1-7.71,12.5,65,65,0,0,1-4.59,5.75,22.31,22.31,0,0,1-5.66,4.64,23.78,23.78,0,0,0,5.29-5,65.61,65.61,0,0,0,4.33-5.86c2.68-4.06,5.15-8.25,7.47-12.54s4.57-8.61,6.76-13q1.65-3.25,3.23-6.56Z" transform="translate(-86.92 -40.19)"/><path class="cls-5" d="M240.27,86.23a35.68,35.68,0,0,1,5.86,5.92,32.2,32.2,0,0,1,4.36,7.15,21.3,21.3,0,0,1,1.87,8.21,18.32,18.32,0,0,1-.51,4.18,17,17,0,0,1-1.6,3.86,18.66,18.66,0,0,0,1.34-8,23.75,23.75,0,0,0-2-7.83,40.65,40.65,0,0,0-4.07-7.09c-.78-1.13-1.62-2.21-2.5-3.27S241.22,87.24,240.27,86.23Z" transform="translate(-86.92 -40.19)"/><path class="cls-5" d="M250.25,80.82A62.1,62.1,0,0,1,264.6,97.26a41.31,41.31,0,0,1,4.36,10.1,34.37,34.37,0,0,1,1,5.42,27.12,27.12,0,0,1-.2,5.48,31.38,31.38,0,0,0-1.5-10.69,48.71,48.71,0,0,0-4.48-9.8,76.25,76.25,0,0,0-6.19-8.88c-1.13-1.42-2.31-2.79-3.54-4.13S251.55,82.09,250.25,80.82Z" transform="translate(-86.92 -40.19)"/><path class="cls-5" d="M257.37,65a39.17,39.17,0,0,1,7.14,4.84,34.57,34.57,0,0,1,5.95,6.31,21.54,21.54,0,0,1,3.66,7.9,17.29,17.29,0,0,1,.35,4.36,16.34,16.34,0,0,1-.94,4.22,19,19,0,0,0,.45-4.24,17.2,17.2,0,0,0-.6-4.16,23.93,23.93,0,0,0-3.74-7.49A42.22,42.22,0,0,0,264,70.44q-1.56-1.47-3.23-2.8C259.69,66.72,258.54,65.86,257.37,65Z" transform="translate(-86.92 -40.19)"/><path class="cls-9" d="M97.88,205.54c.25,3,.41,5.93.74,8.84a38.86,38.86,0,0,0,.69,4.32,9.83,9.83,0,0,0,1.68,4,7.48,7.48,0,0,1-2.43-3.78,22.4,22.4,0,0,1-.94-4.43A32.33,32.33,0,0,1,97.88,205.54Z" transform="translate(-86.92 -40.19)"/><path class="cls-9" d="M286.71,211.62a16,16,0,0,1,1.86,4.88,14.35,14.35,0,0,1,.15,5.31,10,10,0,0,1-2.3,4.81,10.66,10.66,0,0,1-4.35,2.93,14.61,14.61,0,0,0,3.74-3.42,10.62,10.62,0,0,0,1.92-4.5,17.08,17.08,0,0,0,.08-5A29.55,29.55,0,0,0,286.71,211.62Z" transform="translate(-86.92 -40.19)"/><path class="cls-8" d="M139.92,287.93" transform="translate(-86.92 -40.19)"/><path class="cls-1" d="M272,195.83c-.11-1.09.29-2.17-.59-3a4.92,4.92,0,0,0-3.49-1.13c-3.45-1.45-7.54-1.85-11.16-2.53a54.36,54.36,0,0,0-6.38-.87,52.88,52.88,0,0,1-7.46-.65,1.22,1.22,0,0,0-.66,0,1.39,1.39,0,0,0-.83.08l-.08,0c-2.94-.49-6.17-.19-9.16-.24a86.94,86.94,0,0,0-10.82.54c-3.41.38-6.81.87-10.22,1.32a35.58,35.58,0,0,0-4.36.8l-1.43.23a13.44,13.44,0,0,0-4.31,2.12,1.49,1.49,0,0,0-.32.28c-2.48-.48-5.8.23-7.69.26-2.91,0-5.5-1.09-8.07-2.28A8.83,8.83,0,0,0,181,189l-.26-.09a61.94,61.94,0,0,0-6.36-1.35c-2.44-.52-4.86-1.19-7.32-1.65a1.23,1.23,0,0,0-1.16.36c-2.31-.39-4.63-.7-6.94-.86a1.91,1.91,0,0,0-.36-.07l-1.07,0a1.19,1.19,0,0,0-.75-.25c-7.14,0-14.52-.8-21.63.14-3.53.46-7.07,1-10.62,1.19a5.87,5.87,0,0,0-2.17.51,1.53,1.53,0,0,0-.45-.16,2.23,2.23,0,0,0-1,.24,7.81,7.81,0,0,1-3,.67,5.91,5.91,0,0,0-2.48.9,1.19,1.19,0,0,0-1.45.49c-.63,1.28-.38,2.67-.54,4a8.06,8.06,0,0,0-.07,1.51,1.11,1.11,0,0,0,.19,1.37,1.25,1.25,0,0,0,1.21.28l.06,0a4.3,4.3,0,0,1,.61.25,2.77,2.77,0,0,0,.71.64,2.45,2.45,0,0,1,.72.87,19.17,19.17,0,0,1,.83,3.28c.63,2.55.75,5.18,1.36,7.73a1.22,1.22,0,0,0,.14.35,7.54,7.54,0,0,0,.56,3.42c.28.81.53,1.62.79,2.42a7.58,7.58,0,0,0,1.11,1.85.63.63,0,0,0,0,.24,2.48,2.48,0,0,0,.24.91,1,1,0,0,0,.17.77,5.85,5.85,0,0,0,3,2.2,11,11,0,0,0,3,1.55,1.1,1.1,0,0,0,.76,0,13.21,13.21,0,0,0,2.31.65,121.89,121.89,0,0,0,14.27,1.73c5,.26,10.06.46,15.09.39,3.94-.06,8.81.2,12.43-1.51a1.07,1.07,0,0,0,.48-.43,13.75,13.75,0,0,0,3.85-2.72,33.89,33.89,0,0,0,2.46-3.38,35.56,35.56,0,0,0,2.59-4,41.27,41.27,0,0,0,2.09-4.56,1.18,1.18,0,0,0,.38-.39,18.77,18.77,0,0,0,2-4.15c.31-.59.62-1.17,1-1.75.61-1,.75-2.23,1.61-3.12s2.52-1.09,3.59-1.37c2.7-.68,5.41-.32,6.81,2.09a8.6,8.6,0,0,1,1.06,2.62,2.1,2.1,0,0,0,.76,1.28l.09.1a1.28,1.28,0,0,0,0,.48c.18.95.77,1.75,1,2.69a5.87,5.87,0,0,0,.86,2.53,1.24,1.24,0,0,0,.35.3,25.3,25.3,0,0,0,1.37,3.39,30,30,0,0,0,5.2,8.29c2.31,2.41,4.92,3.23,8.22,3.75A108.51,108.51,0,0,0,230,227c7.36.38,15,.84,22.38-.13,6-.78,10.63-3.82,12.1-9.48a4.65,4.65,0,0,0,.15-.59,1.89,1.89,0,0,0,.84-1c.41-1.5.44-3.13.74-4.66.42-2.14,1-4.26,1.41-6.4.49-2.37,1.59-3.29,3.66-4.5a1.11,1.11,0,0,0,.53-1.29A7.07,7.07,0,0,0,272,195.83Zm-91.5,15.86a51.24,51.24,0,0,1-4,6.26,11,11,0,0,1-4.39,3.68,1.25,1.25,0,0,0-.74.13c-1.37.66-3.06.44-4.51.89a1.21,1.21,0,0,0-.5.28c-2,.1-3.89.22-5.84.27-4.5.09-9-.13-13.51-.32a74.56,74.56,0,0,1-12.5-1.22,26.48,26.48,0,0,1-5.53-1.37l-.08,0a7.12,7.12,0,0,1-3.79-2.74c-1.82-2.36-2.13-5.45-2.94-8.23a7.23,7.23,0,0,0-.26-1,.08.08,0,0,1,0,0,9.74,9.74,0,0,0-.17-4.14,1.05,1.05,0,0,0,0-.36c0-.32-.08-.61-.13-.9a1,1,0,0,0,.13-.85c-.43-1.79,0-4.15.31-6,.06-.37.14-1,.3-1.77a13.16,13.16,0,0,1,2.11-2.85,1.25,1.25,0,0,0,.16-.17,20.86,20.86,0,0,0,2.07-1.27c3-1.68,5.1-1.35,8.51-1.6,3.79-.28,7.62-.42,11.42-.54,3-.11,6.13-.28,9.19-.25l.29,0c5.36.07,10.58,1.32,15.81,2.27,4.34.78,12.55,1.73,12.49,7.25C184.37,202.38,182.76,206.94,180.54,211.69Zm83.52-5.57a.94.94,0,0,0,.21.41c-.25,1.64-.63,3.27-1,4.88-.24,1-.33,2.06-.66,3.07a3,3,0,0,0-.18,1.34,1.18,1.18,0,0,0-.07.2s0,0,0,.06a4.54,4.54,0,0,0-1.43,2.52,1,1,0,0,0-.3.4c-.05.1-.08.19-.13.28h0l-.18.43a11.47,11.47,0,0,1-3,3.19,5.47,5.47,0,0,0-2.25.67c-1.3,0-2.47.63-3.79.72a54.17,54.17,0,0,0-6.25.59,1.35,1.35,0,0,0-.55-.11l-.24,0a1.13,1.13,0,0,0-.56.24c-5.05.06-10.12-.15-15.12-.45a101.39,101.39,0,0,1-10.44-1.37,11.11,11.11,0,0,1-7.66-5,31.81,31.81,0,0,1-4.22-8.57c-.44-1.4-.51-2.87-.95-4.27a5,5,0,0,0-.49-1.05,2.47,2.47,0,0,0-.19-.79,17.52,17.52,0,0,1-.6-2.86,23,23,0,0,1,.07-2.49v-.07a1.08,1.08,0,0,0,.28-.45c.09-2.75,1.19-3,2.33-4.15.54-.22,1.16-.32,1.69-.57s1.1-.6,1.67-.85a1.27,1.27,0,0,0,.57.09c2.72-.2,5.38-.9,8.11-1.15,3-.26,5.88-.66,8.86-.79s5.81,0,8.73.12,5.78-.06,8.67.19a1.26,1.26,0,0,0,.4,0l.2,0,.69,0a.87.87,0,0,0,.3.16c2.29.8,5,.78,7.38,1.15,1.27.2,2.55.35,3.79.58a11.25,11.25,0,0,1,3.51,1.72,1.45,1.45,0,0,0,.41.21,1.18,1.18,0,0,0,.59.49,1.22,1.22,0,0,0,.26.45c.2.22.37.41.52.61a6.38,6.38,0,0,1,.43.71,2.42,2.42,0,0,1,.15,1,1.89,1.89,0,0,0,.4,1.18l.15.19c0,.23.06.45.07.66a25.81,25.81,0,0,1,.09,4.81A2.8,2.8,0,0,0,264.06,206.12Z" transform="translate(-86.92 -40.19)"/><path class="cls-11" d="M113.57,189.77s-.37,5.61-.37,5.63c-.06.94,1.1.93,1.76,1.24a3.78,3.78,0,0,1,2,2.12,28.52,28.52,0,0,1,1.27,5c.48,2.93,1,5.83,1.67,8.73.15.64.3,1.29.5,1.92a28.88,28.88,0,0,0,1.71,4.28s1,2.48,5.46,3.82c.82.25,1.66.47,2.49.69a61.57,61.57,0,0,0,8.1,1.43,118.78,118.78,0,0,0,12.21.79c4.34.08,8.68.09,13-.09,2.18-.09,4.33-.3,6.5-.52,0,0,6-.61,9.83-7.36.74-1.09,1.43-2.21,2.11-3.34a66,66,0,0,0,3.79-7c1-2.15,1.81-4.38,3-6.47a4.48,4.48,0,0,1,3-2.23,13.56,13.56,0,0,1,3.53-.34c1.25.09,2.68.15,3.63,1.05a8.16,8.16,0,0,1,1.81,3.15s3,8.1,3.67,9.41c0,0,3,7.13,5,9.34a13.4,13.4,0,0,0,7,4.25,81.94,81.94,0,0,0,10.95,1.26c4.21.35,8.43.64,12.66.75,2.4.06,4.8,0,7.19,0,0,0,8.76-.1,13.89-3.84,0,0,2.46-1.5,4.14-7.36.3-1.15.58-2.31.89-3.46.54-2,1.14-4.08,1.51-6.14.09-.49.16-1,.29-1.46a10,10,0,0,1,.83-2.33,5.55,5.55,0,0,1,1.37-1.49,9.14,9.14,0,0,1,1.64-.79c.9-.43.6-2.2.58-3,0-1.1,0-2.19,0-3.29,0-.79-.12-1.49-1-1.72-1.75-.44-3.48-1-5.23-1.38a121,121,0,0,0-12.38-2.48c-2.63-.36-5.31-.7-8-.84-2-.12-4.1-.2-6.14-.27-3.61-.13-7.23-.25-10.84-.17-4,.07-8.07.6-12.06,1.05-.88.1-1.75.2-2.62.32a43.09,43.09,0,0,0-9.89,2.14c-1.13.46-2.09,1.17-3.15,1.7-1.27.64-3,.4-4.37.36-1.64,0-3.28-.1-4.92-.08a8,8,0,0,1-2.92-.38c-1.43-.57-2.71-1.54-4.11-2.22a29.11,29.11,0,0,0-5.11-1.59c-.77-.21-1.54-.41-2.31-.59-1.89-.43-3.78-.81-5.67-1.17A140.19,140.19,0,0,0,138,185.07l-1.63.13c-1.41.12-2.81.25-4.22.41-1.91.2-3.83.44-5.73.69s-4.07.55-6.08.94-3.76.82-5.62,1.33C114,188.77,113.62,189,113.57,189.77Z" transform="translate(-86.92 -40.19)"/><path class="cls-12" d="M215,191.31s-8.8.76-10.24,4.19a12.56,12.56,0,0,0-.44,6.07s1.28,6.91,2.83,10.27c0,0,3.2,9.54,8.93,11,0,0,6.13,1.77,18.32,2.15,0,0,18.16.35,23-2.3,0,0,4.11-2.34,5.42-8.58,0,0,1.35-6.43,1.59-9.88,0,0,.6-6.24-2.23-9.25,0,0-1.58-2.62-11.15-3.64a128,128,0,0,0-28.23-.87S216.55,191.1,215,191.31Z" transform="translate(-86.92 -40.19)"/><path class="cls-13" d="M153.34,187.67c-2.13,0-4.28,0-6.41,0-4.16.09-8.3.27-12.44.64s-9.23,1-11.49,4.92a9.18,9.18,0,0,0-1.09,3.82s-1.16,13.19,2.68,19.82c0,0,1.06,4,13.19,5.52,0,0,17.84,1.34,22.18.86,0,0,12.84-.19,15.67-4a45.71,45.71,0,0,0,6.05-10.09,30.88,30.88,0,0,0,2.81-10.83,9,9,0,0,0-.39-3.09c-.85-2.42-4.68-3.54-6.94-4.24a48.35,48.35,0,0,0-5.73-1.26S159.91,187.64,153.34,187.67Z" transform="translate(-86.92 -40.19)"/><path class="cls-14" d="M153.34,187.67c-2.13,0-4.28,0-6.41,0-4.16.09-8.3.27-12.44.64s-9.23,1-11.49,4.92a9.18,9.18,0,0,0-1.09,3.82s-1.16,13.19,2.68,19.82c0,0,1.06,4,13.19,5.52,0,0,17.84,1.34,22.18.86,0,0,12.84-.19,15.67-4a45.71,45.71,0,0,0,6.05-10.09,30.88,30.88,0,0,0,2.81-10.83,9,9,0,0,0-.39-3.09c-.85-2.42-4.68-3.54-6.94-4.24a48.35,48.35,0,0,0-5.73-1.26S159.91,187.64,153.34,187.67Z" transform="translate(-86.92 -40.19)"/><path class="cls-15" d="M153.34,187.67c-2.13,0-4.28,0-6.41,0-4.16.09-8.3.27-12.44.64s-9.23,1-11.49,4.92a9.18,9.18,0,0,0-1.09,3.82s-1.16,13.19,2.68,19.82c0,0,1.06,4,13.19,5.52,0,0,17.84,1.34,22.18.86,0,0,12.84-.19,15.67-4a45.71,45.71,0,0,0,6.05-10.09,30.88,30.88,0,0,0,2.81-10.83,9,9,0,0,0-.39-3.09c-.85-2.42-4.68-3.54-6.94-4.24a48.35,48.35,0,0,0-5.73-1.26S159.91,187.64,153.34,187.67Z" transform="translate(-86.92 -40.19)"/><polygon class="cls-1" points="45.84 183.61 50.89 182.47 51.68 183.22 50.5 184.34 52.96 185.09 55.82 182.38 55.82 179.31 53.46 181.55 52.66 180.79 55.82 177.79 55.82 174.59 52.52 177.74 48.4 181.63 48.4 180.12 55.82 173.03 52.51 173.03 45.84 179.37 45.84 183.61"/><polygon class="cls-1" points="56.95 176.67 62 171.88 62.8 172.63 56.95 178.18 60.19 178.18 66.93 171.78 66.93 168.72 64.57 170.96 63.77 170.19 66.93 167.2 66.93 164 63.63 167.14 59.51 171.04 59.51 169.53 66.93 162.44 63.62 162.44 56.95 168.77 56.95 176.67"/><polygon class="cls-1" points="68.07 166.2 73.13 161.41 73.92 162.16 68.07 167.71 71.32 167.71 78.06 161.31 78.06 158.25 75.69 160.49 74.89 159.72 78.06 156.72 78.06 153.53 74.76 156.67 70.64 160.57 70.64 159.06 78.06 151.97 74.75 151.97 68.07 158.3 68.07 166.2"/><line class="cls-1" x1="81.75" y1="150.04" x2="81.75" y2="148.53"/><polyline class="cls-1" points="79.18 147.77 79.18 155.67 84.24 150.87 85.03 151.63 79.18 157.18 82.43 157.18 89.17 150.78 89.17 147.71 86.8 149.96 86 149.19"/><polyline class="cls-1" points="39.77 178.94 40.57 179.69 38.74 181.43 41.18 182.57 44.7 178.84 44.7 175.78 42.34 178.02 41.54 177.26 44.7 174.26 44.7 171.06 41.4 174.21 37.28 178.1 37.28 176.59 44.7 169.5 41.39 169.5 34.72 175.83"/><polygon class="cls-1" points="45.84 173.14 50.89 168.34 51.68 169.1 45.84 174.65 49.08 174.65 55.82 168.25 55.82 165.18 53.46 167.43 52.66 166.66 55.82 163.67 55.82 160.47 52.52 163.61 48.4 167.51 48.4 166 55.82 158.9 52.51 158.9 45.84 165.24 45.84 173.14"/><polygon class="cls-1" points="56.95 162.6 62 157.8 62.8 158.55 56.95 164.1 60.19 164.1 66.93 157.71 66.93 154.64 64.57 156.88 63.77 156.12 66.93 153.12 66.93 149.92 63.63 153.07 59.51 156.97 59.51 155.45 66.93 148.36 63.62 148.36 56.95 154.69 56.95 162.6"/><line class="cls-1" x1="70.64" y1="146.41" x2="70.64" y2="144.89"/><path class="cls-1" d="M165,179.73" transform="translate(-86.92 -40.19)"/><polyline class="cls-1" points="68.07 144.88 68.07 152.04 73.13 147.24 73.92 147.99 68.07 153.55 71.32 153.55 78.06 147.15 77.67 145.97 75.69 146.32 74.89 145.56"/><polygon class="cls-1" points="34.72 169.67 39.78 164.88 40.57 165.63 34.72 171.18 37.97 171.18 44.71 164.78 44.71 161.72 42.34 163.96 41.54 163.19 44.71 160.2 44.71 157 41.41 160.15 37.29 164.04 37.29 162.53 44.71 155.44 41.4 155.44 34.72 161.77 34.72 169.67"/><polygon class="cls-1" points="45.84 159.08 50.9 154.28 51.69 155.03 45.84 160.59 49.09 160.59 55.82 154.19 55.82 151.12 53.46 153.37 52.66 152.6 55.82 149.6 55.82 146.4 52.52 149.55 48.4 153.45 48.4 151.94 55.82 144.84 52.51 144.84 45.84 151.18 45.84 159.08"/><path class="cls-1" d="M146.44,183.15" transform="translate(-86.92 -40.19)"/><path class="cls-1" d="M153.4,179.73" transform="translate(-86.92 -40.19)"/><line class="cls-1" x1="64.57" y1="142.87" x2="63.77" y2="142.11"/><polyline class="cls-1" points="56.95 145.37 56.95 148.59 61.17 144.58 62.8 144.54 56.95 150.09 60.19 150.09 64.98 145.55"/><polygon class="cls-1" points="34.72 155.61 39.78 150.81 40.57 151.56 34.72 157.11 37.97 157.11 44.71 150.72 44.71 147.65 42.34 149.89 41.54 149.13 44.71 146.13 43 146.54 41.41 146.08 37.29 149.97 37.29 148.46 39.29 146.55 35.94 146.55 34.72 147.71 34.72 155.61"/><line class="cls-1" x1="62" y1="185.91" x2="62.8" y2="186.66"/><polyline class="cls-1" points="66.93 185.09 66.93 182.75 64.57 184.99 63.77 184.22 66.93 181.23 66.93 178.03 63.63 181.18 59.51 185.07 59.51 183.56 66.93 176.47 63.62 176.47 56.95 182.81"/><polygon class="cls-1" points="68.07 180.24 73.13 175.44 73.92 176.19 68.07 181.74 71.32 181.74 78.06 175.34 78.06 172.28 75.69 174.52 74.89 173.76 78.06 170.76 78.06 167.56 74.76 170.7 70.64 174.6 70.64 173.09 78.06 166 74.75 166 68.07 172.33 68.07 180.24"/><polygon class="cls-1" points="79.18 169.7 84.24 164.91 85.03 165.66 79.18 171.21 82.43 171.21 89.17 164.81 89.17 161.75 86.8 163.99 86 163.22 89.17 160.23 89.17 157.03 85.87 160.17 81.75 164.07 81.75 162.56 89.17 155.47 85.86 155.47 79.18 161.8 79.18 169.7"/><polyline class="cls-1" points="90.31 151.15 90.31 159.06 95.36 154.26 96.16 155.01 90.31 160.56 93.55 160.56 97.67 156.65 97.67 153.09 97.13 152.57 97.67 152.06 97.65 149.91 96.99 149.52 92.88 153.42 92.87 151.91"/><polyline class="cls-1" points="72.55 185.09 78.06 179.82 74.75 179.82 69.52 184.79"/><polyline class="cls-1" points="76.44 185.13 78.06 184.57 78.06 181.38 74.76 184.52"/><path class="cls-1" d="M165,226.28" transform="translate(-86.92 -40.19)"/><polygon class="cls-1" points="79.2 183.58 84.26 178.78 85.05 179.53 79.2 185.09 82.45 185.09 89.19 178.69 89.19 175.62 86.83 177.86 86.02 177.1 89.19 174.1 89.19 170.91 85.89 174.05 81.77 177.95 81.77 176.44 89.19 169.34 85.88 169.34 79.2 175.68 79.2 183.58"/><polygon class="cls-1" points="97.67 167.07 97.13 166.57 97.67 166.06 97.67 162.88 97 163.52 92.88 167.42 92.88 165.9 97.67 161.33 97.67 158.81 96.99 158.81 90.32 165.15 90.32 173.05 95.37 168.25 96.16 169 90.32 174.56 93.56 174.56 95.91 170.31 97.67 167.07"/><polyline class="cls-1" points="132.47 185.55 138.78 179.56 135.6 179.56 129.22 185.59"/><polyline class="cls-1" points="137.2 186.23 138.78 184.09 138.78 181.04 135.62 184.04"/><path class="cls-1" d="M225.7,225.73" transform="translate(-86.92 -40.19)"/><polygon class="cls-1" points="139.86 183.03 144.7 178.45 145.45 179.17 139.86 184.46 142.96 184.46 149.41 178.36 149.41 175.44 147.15 177.58 146.38 176.85 149.41 173.99 149.41 170.94 146.25 173.94 142.31 177.66 142.31 176.22 149.41 169.46 146.24 169.46 139.86 175.5 139.86 183.03"/><polygon class="cls-1" points="150.51 173.04 155.35 168.47 156.11 169.19 150.51 174.48 153.61 174.48 160.06 168.38 160.06 165.46 157.8 167.6 157.04 166.87 160.06 164.01 160.06 160.96 156.9 163.96 152.96 167.68 152.96 166.23 160.06 159.47 156.89 159.47 150.51 165.51 150.51 173.04"/><polygon class="cls-1" points="161.15 163 165.99 158.43 166.75 159.15 161.15 164.44 164.26 164.44 170.7 158.34 170.7 155.42 168.44 157.56 167.67 156.83 170.7 153.97 170.7 150.92 167.54 153.92 163.6 157.64 163.6 156.19 170.7 149.43 167.53 149.43 161.15 155.47 161.15 163"/><polyline class="cls-1" points="176.36 150.09 171.8 154.31 174.9 154.31 178.84 150.58"/><polyline class="cls-1" points="123.07 181.01 128.13 176.19 124.96 176.19 121.93 179.06"/><polyline class="cls-1" points="128.13 185.09 128.13 182.17 125.87 184.31 125.1 183.58 128.13 180.73 128.13 177.68 124.97 180.67"/><polygon class="cls-1" points="129.22 179.66 134.06 175.08 134.81 175.8 129.22 181.09 132.33 181.09 138.78 175 138.78 172.07 136.52 174.21 135.75 173.48 138.78 170.62 138.78 167.58 135.62 170.57 131.67 174.29 131.67 172.85 138.78 166.09 135.6 166.09 129.22 172.13 129.22 179.66"/><polygon class="cls-1" points="139.86 169.61 144.7 165.03 145.45 165.75 139.86 171.04 142.96 171.04 149.41 164.95 149.41 162.02 147.15 164.16 146.38 163.43 149.41 160.57 149.41 157.52 146.25 160.52 142.31 164.24 142.31 162.8 149.41 156.03 146.24 156.03 139.86 162.07 139.86 169.61"/><polygon class="cls-1" points="160.06 147.62 159.89 147.62 156.9 150.46 152.96 154.17 152.96 152.73 158.33 147.62 155.15 147.62 150.51 152.01 150.51 159.54 155.35 154.97 156.11 155.69 150.51 160.98 153.61 160.98 160.06 154.88 160.06 151.95 157.8 154.09 157.04 153.36 160.06 150.51 160.06 147.62"/><polygon class="cls-1" points="161.15 147.62 161.15 149.57 163.21 147.62 161.15 147.62"/><polygon class="cls-1" points="119.6 176.04 123.42 171.78 124.18 172.5 119.98 177.22 121.69 177.79 128.13 171.69 128.13 168.77 125.87 170.91 125.11 170.18 128.13 167.32 128.13 164.27 124.98 167.27 121.03 170.98 121.03 169.54 128.13 162.78 124.97 162.78 118.58 168.82 119.6 176.04"/><polygon class="cls-1" points="129.22 166.25 134.06 161.68 134.82 162.4 129.22 167.69 132.33 167.69 138.78 161.59 138.78 158.67 136.52 160.81 135.75 160.08 138.78 157.22 138.78 154.17 135.62 157.17 131.68 160.88 131.67 159.44 138.78 152.68 135.61 152.68 129.22 158.72 129.22 166.25"/><polygon class="cls-1" points="146.38 150.07 148.99 147.62 145.77 147.62 142.31 150.88 142.31 149.44 144.22 147.62 141.02 147.62 139.86 148.72 139.86 156.25 144.7 151.68 145.45 152.39 139.86 157.69 142.96 157.69 149.41 151.59 149.41 148.66 147.15 150.8 146.38 150.07"/><polygon class="cls-1" points="118.58 162.94 123.42 158.37 124.18 159.09 118.58 164.38 121.69 164.38 128.13 158.28 128.13 155.36 125.87 157.5 125.11 156.77 128.13 153.91 128.13 150.86 124.98 153.86 121.03 157.57 121.03 156.13 128.13 149.37 124.97 149.37 118.58 155.41 118.58 162.94"/><polygon class="cls-1" points="129.22 147.62 129.22 152.86 134.06 148.28 134.81 149 129.22 154.29 132.33 154.29 138.78 148.19 138.78 147.62 129.22 147.62"/><polyline class="cls-1" points="145.86 186.21 149.41 182.83 146.24 182.83 142.99 185.91"/><polyline class="cls-1" points="147.83 186.66 149.41 187.37 149.41 184.32 146.25 187.32"/><polygon class="cls-1" points="150.51 186.42 155.35 181.85 156.11 182.57 151.77 186.66 154.44 187.08 160.06 181.76 160.06 178.84 157.8 180.97 157.04 180.25 160.06 177.39 160.06 174.34 156.9 177.34 152.96 181.05 152.96 179.61 160.06 172.85 156.89 172.85 150.51 178.89 150.51 186.42"/><polygon class="cls-1" points="161.15 176.38 165.99 171.81 166.75 172.52 161.15 177.82 164.26 177.82 170.7 171.72 170.7 168.79 168.44 170.93 167.67 170.2 170.7 167.34 170.7 164.3 167.54 167.3 163.6 171.01 163.6 169.57 170.7 162.81 167.53 162.81 161.15 168.85 161.15 176.38"/><polygon class="cls-1" points="178.84 160.54 178.33 160.05 178.84 159.56 178.84 156.53 178.19 157.14 174.25 160.86 174.25 159.42 178.84 155.05 178.84 152.66 178.18 152.66 171.8 158.69 171.8 166.23 176.64 161.65 177.4 162.37 171.8 167.66 174.9 167.66 178.84 163.94 178.84 160.54"/><polyline class="cls-1" points="170.72 184.95 170.72 182.03 168.46 184.16 167.69 183.43 170.72 180.58 170.72 177.53 167.56 180.52 163.62 184.24 163.62 182.8 170.72 176.04 167.55 176.04 161.17 182.08 161.15 186.66 166 185.04 166.76 185.75"/><polygon class="cls-1" points="178.84 173.88 178.33 173.39 178.84 172.91 178.84 169.88 178.2 170.48 174.26 174.2 174.26 172.76 178.84 168.4 178.84 166 178.19 166 171.8 172.04 171.8 179.57 176.64 175 177.4 175.71 171.8 181.01 174.91 181.01 177.58 177.15 178.84 173.88"/><path class="cls-15" d="M215,191.31s-8.8.76-10.24,4.19a12.56,12.56,0,0,0-.44,6.07s1.28,6.91,2.83,10.27c0,0,3.2,9.54,8.93,11,0,0,6.13,1.77,18.32,2.15,0,0,18.16.35,23-2.3,0,0,4.11-2.34,5.42-8.58,0,0,1.35-6.43,1.59-9.88,0,0,.6-6.24-2.23-9.25,0,0-1.58-2.62-11.15-3.64a128,128,0,0,0-28.23-.87S216.55,191.1,215,191.31Z" transform="translate(-86.92 -40.19)"/><path class="cls-16" d="M244.71,47.14s-2.31.24-5.85.91a86.34,86.34,0,0,0-20.44,6.31S217.59,42.5,204,40.8c0,0,1.34,3.22,2.29,12.54,0,0-15.81-9.53-32.91-7.73,0,0,16.72,8.61,15.13,14.62,0,0-38.77-13.91-60.94,11.65,0,0-14.41,21.59-31.71,31,0,0,4.12,8.59,0,21.22,0,0-2.24,18.21-8.26,18.06,0,0,18.1,66.16,23.8,83.3l1.26-31.28,4.12.45-1.58-7.06S159.2,140.06,170,138c0,0-16.16,22.25-26,28.27,0,0,55.74-3.61,90.57-36.39,0,0,7,38.19,32,45.11,0,0-8.87-11.73-9.19-21.35,0,0,11.09,16.84,16.79,22.25,0,0-1.59,39.39,0,53.22,0,0,20.42-54.63,29.71-72.75l1.32-21.38s3.43-13.84,6.28-13.24c-2.66-2.71-2.73-3.35-5.29-6.14a144.2,144.2,0,0,1-11.6-14.66c-3.81-5.32-5.29-9.48-9.32-14.66C280.57,80.21,278,73.91,272,69a62.22,62.22,0,0,0-10.38-5.64c-4.4-1.65-7.1-5.63-11.76-5.33-4,.26-8,.44-11.93.86-.34,0-3.21.13-3.34.57a21.12,21.12,0,0,1,5.7-8.87Z" transform="translate(-86.92 -40.19)"/></svg>